<mxfile host="app.diagrams.net" modified="2021-04-19T02:37:19.118Z" agent="5.0 (Macintosh; Intel Mac OS X 10_14_6) AppleWebKit/537.36 (KHTML, like Gecko) Chrome/89.0.4389.128 Safari/537.36" etag="jYgAPu8Sa4HuYYb3zqsv" version="14.6.1" type="github" pages="9">
  <diagram id="h-_VhynI3uFBvxVNRBa4" name="框架分层">
    <mxGraphModel dx="2066" dy="1131" grid="1" gridSize="10" guides="1" tooltips="1" connect="1" arrows="1" fold="1" page="1" pageScale="1" pageWidth="827" pageHeight="1169" math="0" shadow="0">
      <root>
        <mxCell id="0" />
        <mxCell id="1" parent="0" />
        <mxCell id="mMDszP_-jPS6JUTU8f4Y-1" value="&lt;font style=&quot;font-size: 20px&quot;&gt;Route&lt;/font&gt;" style="rounded=1;whiteSpace=wrap;html=1;fillColor=#d5e8d4;strokeColor=#82b366;" parent="1" vertex="1">
          <mxGeometry x="120" y="150" width="120" height="50" as="geometry" />
        </mxCell>
        <mxCell id="mMDszP_-jPS6JUTU8f4Y-2" value="&lt;font style=&quot;font-size: 20px&quot;&gt;Controller&lt;/font&gt;" style="rounded=1;whiteSpace=wrap;html=1;fillColor=#60a917;strokeColor=#2D7600;fontColor=#ffffff;" parent="1" vertex="1">
          <mxGeometry x="277" y="150" width="226" height="50" as="geometry" />
        </mxCell>
        <mxCell id="mMDszP_-jPS6JUTU8f4Y-3" value="&lt;font style=&quot;font-size: 18px&quot;&gt;Config Utils&lt;/font&gt;" style="rounded=1;whiteSpace=wrap;html=1;fillColor=#647687;strokeColor=#314354;fontColor=#ffffff;" parent="1" vertex="1">
          <mxGeometry x="550" y="150" width="110" height="50" as="geometry" />
        </mxCell>
        <mxCell id="mMDszP_-jPS6JUTU8f4Y-4" value="&lt;font style=&quot;font-size: 20px&quot;&gt;Node Server Framework&lt;/font&gt;" style="rounded=1;whiteSpace=wrap;html=1;fillColor=#76608a;strokeColor=#432D57;fontColor=#ffffff;" parent="1" vertex="1">
          <mxGeometry x="120" y="420" width="540" height="50" as="geometry" />
        </mxCell>
        <mxCell id="mMDszP_-jPS6JUTU8f4Y-5" value="&lt;font style=&quot;font-size: 20px&quot;&gt;KOA&lt;/font&gt;" style="rounded=1;whiteSpace=wrap;html=1;fillColor=#a0522d;strokeColor=#6D1F00;fontColor=#ffffff;" parent="1" vertex="1">
          <mxGeometry x="120" y="500" width="540" height="50" as="geometry" />
        </mxCell>
        <mxCell id="mMDszP_-jPS6JUTU8f4Y-6" value="&lt;font style=&quot;font-size: 20px&quot;&gt;Service&lt;/font&gt;" style="rounded=1;whiteSpace=wrap;html=1;fillColor=#f0a30a;strokeColor=#BD7000;fontColor=#ffffff;" parent="1" vertex="1">
          <mxGeometry x="277" y="250" width="230" height="50" as="geometry" />
        </mxCell>
        <mxCell id="mMDszP_-jPS6JUTU8f4Y-7" value="&lt;font style=&quot;font-size: 20px&quot; color=&quot;#ffffff&quot;&gt;Dao&lt;/font&gt;" style="rounded=1;whiteSpace=wrap;html=1;fillColor=#e6d0de;strokeColor=#996185;gradientColor=#d5739d;" parent="1" vertex="1">
          <mxGeometry x="280" y="340" width="230" height="50" as="geometry" />
        </mxCell>
        <mxCell id="mMDszP_-jPS6JUTU8f4Y-8" value="&lt;font style=&quot;font-size: 20px&quot;&gt;Model&lt;br&gt;List&lt;br&gt;&lt;/font&gt;" style="rounded=1;whiteSpace=wrap;html=1;gradientColor=#7ea6e0;fillColor=#dae8fc;strokeColor=#6c8ebf;" parent="1" vertex="1">
          <mxGeometry x="120" y="270" width="120" height="120" as="geometry" />
        </mxCell>
        <mxCell id="mMDszP_-jPS6JUTU8f4Y-9" value="&lt;font style=&quot;font-size: 20px&quot;&gt;Schema&lt;/font&gt;" style="rounded=1;whiteSpace=wrap;html=1;fillColor=#ffff88;strokeColor=#36393d;" parent="1" vertex="1">
          <mxGeometry x="120" y="210" width="120" height="50" as="geometry" />
        </mxCell>
        <mxCell id="mMDszP_-jPS6JUTU8f4Y-10" value="&lt;font style=&quot;font-size: 20px&quot; color=&quot;#330000&quot;&gt;MiddleWares&lt;br&gt;Utils&lt;/font&gt;" style="rounded=1;whiteSpace=wrap;html=1;fillColor=#cdeb8b;strokeColor=#36393d;" parent="1" vertex="1">
          <mxGeometry x="550" y="220" width="120" height="100" as="geometry" />
        </mxCell>
        <mxCell id="mMDszP_-jPS6JUTU8f4Y-11" value="&lt;font style=&quot;font-size: 20px&quot;&gt;Views&lt;/font&gt;" style="rounded=1;whiteSpace=wrap;html=1;fillColor=#008a00;strokeColor=#005700;fontColor=#ffffff;" parent="1" vertex="1">
          <mxGeometry x="550" y="340" width="120" height="50" as="geometry" />
        </mxCell>
      </root>
    </mxGraphModel>
  </diagram>
  <diagram id="Uh9tVpgPMrkRTlRDPFxo" name="调用关系">
    <mxGraphModel dx="2013" dy="648" grid="1" gridSize="10" guides="1" tooltips="1" connect="1" arrows="1" fold="1" page="1" pageScale="1" pageWidth="827" pageHeight="1169" math="0" shadow="0">
      <root>
        <mxCell id="k3PXLN8VaXz59WShr0WA-0" />
        <mxCell id="k3PXLN8VaXz59WShr0WA-1" parent="k3PXLN8VaXz59WShr0WA-0" />
        <mxCell id="k3PXLN8VaXz59WShr0WA-2" value="&lt;font style=&quot;font-size: 20px&quot;&gt;Router&lt;/font&gt;" style="rounded=1;whiteSpace=wrap;html=1;fillColor=#bac8d3;strokeColor=#23445d;" parent="k3PXLN8VaXz59WShr0WA-1" vertex="1">
          <mxGeometry x="-190" y="320" width="120" height="60" as="geometry" />
        </mxCell>
        <mxCell id="k3PXLN8VaXz59WShr0WA-3" value="&lt;font style=&quot;font-size: 20px&quot;&gt;Controller&lt;/font&gt;" style="rounded=1;whiteSpace=wrap;html=1;gradientColor=#ffd966;fillColor=#fff2cc;strokeColor=#d6b656;" parent="k3PXLN8VaXz59WShr0WA-1" vertex="1">
          <mxGeometry x="190" y="240" width="130" height="50" as="geometry" />
        </mxCell>
        <mxCell id="k3PXLN8VaXz59WShr0WA-4" value="&lt;font style=&quot;font-size: 20px&quot;&gt;Controller&lt;/font&gt;" style="rounded=1;whiteSpace=wrap;html=1;gradientColor=#ffd966;fillColor=#fff2cc;strokeColor=#d6b656;" parent="k3PXLN8VaXz59WShr0WA-1" vertex="1">
          <mxGeometry x="190" y="410" width="130" height="50" as="geometry" />
        </mxCell>
        <mxCell id="k3PXLN8VaXz59WShr0WA-5" value="&lt;font style=&quot;font-size: 20px&quot;&gt;Service&lt;/font&gt;" style="rounded=1;whiteSpace=wrap;html=1;gradientColor=#97d077;fillColor=#d5e8d4;strokeColor=#82b366;" parent="k3PXLN8VaXz59WShr0WA-1" vertex="1">
          <mxGeometry x="460" y="240" width="120" height="50" as="geometry" />
        </mxCell>
        <mxCell id="k3PXLN8VaXz59WShr0WA-6" value="&lt;font style=&quot;font-size: 20px&quot;&gt;Service&lt;/font&gt;" style="rounded=1;whiteSpace=wrap;html=1;gradientColor=#97d077;fillColor=#d5e8d4;strokeColor=#82b366;" parent="k3PXLN8VaXz59WShr0WA-1" vertex="1">
          <mxGeometry x="460" y="410" width="120" height="50" as="geometry" />
        </mxCell>
        <mxCell id="k3PXLN8VaXz59WShr0WA-7" value="&lt;font style=&quot;font-size: 20px&quot;&gt;Model&lt;/font&gt;" style="rounded=1;whiteSpace=wrap;html=1;gradientColor=#d5739d;fillColor=#e6d0de;strokeColor=#996185;" parent="k3PXLN8VaXz59WShr0WA-1" vertex="1">
          <mxGeometry x="380" y="110" width="120" height="50" as="geometry" />
        </mxCell>
        <mxCell id="k3PXLN8VaXz59WShr0WA-8" value="&lt;font style=&quot;font-size: 20px&quot;&gt;Schema&lt;/font&gt;" style="rounded=1;whiteSpace=wrap;html=1;gradientColor=#7ea6e0;fillColor=#dae8fc;strokeColor=#6c8ebf;" parent="k3PXLN8VaXz59WShr0WA-1" vertex="1">
          <mxGeometry x="560" y="110" width="120" height="50" as="geometry" />
        </mxCell>
        <mxCell id="k3PXLN8VaXz59WShr0WA-9" value="&lt;font style=&quot;font-size: 20px&quot;&gt;View&lt;/font&gt;" style="rounded=1;whiteSpace=wrap;html=1;fillColor=#cdeb8b;strokeColor=#36393d;" parent="k3PXLN8VaXz59WShr0WA-1" vertex="1">
          <mxGeometry x="195" y="110" width="120" height="50" as="geometry" />
        </mxCell>
        <mxCell id="k3PXLN8VaXz59WShr0WA-10" value="&lt;font style=&quot;font-size: 20px&quot;&gt;View&lt;/font&gt;" style="rounded=1;whiteSpace=wrap;html=1;fillColor=#cdeb8b;strokeColor=#36393d;" parent="k3PXLN8VaXz59WShr0WA-1" vertex="1">
          <mxGeometry x="195" y="535" width="120" height="50" as="geometry" />
        </mxCell>
        <mxCell id="k3PXLN8VaXz59WShr0WA-11" value="&lt;font style=&quot;font-size: 20px&quot;&gt;Model&lt;/font&gt;" style="rounded=1;whiteSpace=wrap;html=1;gradientColor=#d5739d;fillColor=#e6d0de;strokeColor=#996185;" parent="k3PXLN8VaXz59WShr0WA-1" vertex="1">
          <mxGeometry x="380" y="540" width="120" height="50" as="geometry" />
        </mxCell>
        <mxCell id="k3PXLN8VaXz59WShr0WA-12" value="&lt;font style=&quot;font-size: 20px&quot;&gt;Schema&lt;/font&gt;" style="rounded=1;whiteSpace=wrap;html=1;gradientColor=#7ea6e0;fillColor=#dae8fc;strokeColor=#6c8ebf;" parent="k3PXLN8VaXz59WShr0WA-1" vertex="1">
          <mxGeometry x="580" y="540" width="120" height="50" as="geometry" />
        </mxCell>
        <mxCell id="k3PXLN8VaXz59WShr0WA-13" value="&lt;font style=&quot;font-size: 20px&quot;&gt;Dao&lt;/font&gt;" style="rounded=1;whiteSpace=wrap;html=1;fillColor=#ffcc99;strokeColor=#36393d;" parent="k3PXLN8VaXz59WShr0WA-1" vertex="1">
          <mxGeometry x="680" y="240" width="120" height="50" as="geometry" />
        </mxCell>
        <mxCell id="k3PXLN8VaXz59WShr0WA-14" value="&lt;font style=&quot;font-size: 20px&quot;&gt;Dao&lt;/font&gt;" style="rounded=1;whiteSpace=wrap;html=1;fillColor=#ffcc99;strokeColor=#36393d;" parent="k3PXLN8VaXz59WShr0WA-1" vertex="1">
          <mxGeometry x="680" y="410" width="120" height="50" as="geometry" />
        </mxCell>
        <mxCell id="k3PXLN8VaXz59WShr0WA-15" value="" style="endArrow=classic;html=1;entryX=0;entryY=0.5;entryDx=0;entryDy=0;" parent="k3PXLN8VaXz59WShr0WA-1" target="k3PXLN8VaXz59WShr0WA-3" edge="1">
          <mxGeometry width="50" height="50" relative="1" as="geometry">
            <mxPoint x="140" y="340" as="sourcePoint" />
            <mxPoint x="190" y="290" as="targetPoint" />
          </mxGeometry>
        </mxCell>
        <mxCell id="k3PXLN8VaXz59WShr0WA-16" value="" style="endArrow=classic;html=1;entryX=0;entryY=0.5;entryDx=0;entryDy=0;" parent="k3PXLN8VaXz59WShr0WA-1" target="k3PXLN8VaXz59WShr0WA-4" edge="1">
          <mxGeometry width="50" height="50" relative="1" as="geometry">
            <mxPoint x="140" y="360" as="sourcePoint" />
            <mxPoint x="190" y="310" as="targetPoint" />
          </mxGeometry>
        </mxCell>
        <mxCell id="k3PXLN8VaXz59WShr0WA-17" value="" style="endArrow=classic;html=1;entryX=0;entryY=0.5;entryDx=0;entryDy=0;exitX=1;exitY=0.5;exitDx=0;exitDy=0;" parent="k3PXLN8VaXz59WShr0WA-1" source="k3PXLN8VaXz59WShr0WA-3" target="k3PXLN8VaXz59WShr0WA-5" edge="1">
          <mxGeometry width="50" height="50" relative="1" as="geometry">
            <mxPoint x="320" y="270" as="sourcePoint" />
            <mxPoint x="370" y="220" as="targetPoint" />
          </mxGeometry>
        </mxCell>
        <mxCell id="k3PXLN8VaXz59WShr0WA-18" value="" style="endArrow=classic;html=1;entryX=-0.033;entryY=0.64;entryDx=0;entryDy=0;entryPerimeter=0;" parent="k3PXLN8VaXz59WShr0WA-1" target="k3PXLN8VaXz59WShr0WA-6" edge="1">
          <mxGeometry width="50" height="50" relative="1" as="geometry">
            <mxPoint x="320" y="440" as="sourcePoint" />
            <mxPoint x="370" y="390" as="targetPoint" />
          </mxGeometry>
        </mxCell>
        <mxCell id="k3PXLN8VaXz59WShr0WA-19" value="" style="endArrow=classic;html=1;entryX=0;entryY=0.25;entryDx=0;entryDy=0;" parent="k3PXLN8VaXz59WShr0WA-1" target="k3PXLN8VaXz59WShr0WA-6" edge="1">
          <mxGeometry width="50" height="50" relative="1" as="geometry">
            <mxPoint x="320" y="280" as="sourcePoint" />
            <mxPoint x="370" y="230" as="targetPoint" />
          </mxGeometry>
        </mxCell>
        <mxCell id="k3PXLN8VaXz59WShr0WA-20" value="" style="endArrow=classic;html=1;entryX=0;entryY=0.75;entryDx=0;entryDy=0;" parent="k3PXLN8VaXz59WShr0WA-1" target="k3PXLN8VaXz59WShr0WA-5" edge="1">
          <mxGeometry width="50" height="50" relative="1" as="geometry">
            <mxPoint x="320" y="430" as="sourcePoint" />
            <mxPoint x="370" y="380" as="targetPoint" />
          </mxGeometry>
        </mxCell>
        <mxCell id="k3PXLN8VaXz59WShr0WA-21" value="" style="endArrow=classic;startArrow=classic;html=1;exitX=0.5;exitY=0;exitDx=0;exitDy=0;" parent="k3PXLN8VaXz59WShr0WA-1" source="k3PXLN8VaXz59WShr0WA-6" edge="1">
          <mxGeometry width="50" height="50" relative="1" as="geometry">
            <mxPoint x="470" y="340" as="sourcePoint" />
            <mxPoint x="520" y="290" as="targetPoint" />
          </mxGeometry>
        </mxCell>
        <mxCell id="k3PXLN8VaXz59WShr0WA-22" value="" style="endArrow=classic;html=1;entryX=0.5;entryY=1;entryDx=0;entryDy=0;" parent="k3PXLN8VaXz59WShr0WA-1" target="k3PXLN8VaXz59WShr0WA-7" edge="1">
          <mxGeometry width="50" height="50" relative="1" as="geometry">
            <mxPoint x="520" y="240" as="sourcePoint" />
            <mxPoint x="570" y="190" as="targetPoint" />
          </mxGeometry>
        </mxCell>
        <mxCell id="k3PXLN8VaXz59WShr0WA-23" value="" style="endArrow=classic;html=1;entryX=0.5;entryY=1;entryDx=0;entryDy=0;" parent="k3PXLN8VaXz59WShr0WA-1" target="k3PXLN8VaXz59WShr0WA-8" edge="1">
          <mxGeometry width="50" height="50" relative="1" as="geometry">
            <mxPoint x="540" y="240" as="sourcePoint" />
            <mxPoint x="590" y="190" as="targetPoint" />
          </mxGeometry>
        </mxCell>
        <mxCell id="k3PXLN8VaXz59WShr0WA-24" value="" style="endArrow=classic;html=1;entryX=0.5;entryY=1;entryDx=0;entryDy=0;" parent="k3PXLN8VaXz59WShr0WA-1" source="k3PXLN8VaXz59WShr0WA-3" target="k3PXLN8VaXz59WShr0WA-9" edge="1">
          <mxGeometry width="50" height="50" relative="1" as="geometry">
            <mxPoint x="490" y="240" as="sourcePoint" />
            <mxPoint x="540" y="190" as="targetPoint" />
          </mxGeometry>
        </mxCell>
        <mxCell id="k3PXLN8VaXz59WShr0WA-25" value="" style="endArrow=classic;html=1;entryX=0.442;entryY=-0.02;entryDx=0;entryDy=0;entryPerimeter=0;" parent="k3PXLN8VaXz59WShr0WA-1" target="k3PXLN8VaXz59WShr0WA-12" edge="1">
          <mxGeometry width="50" height="50" relative="1" as="geometry">
            <mxPoint x="530" y="460" as="sourcePoint" />
            <mxPoint x="580" y="410" as="targetPoint" />
          </mxGeometry>
        </mxCell>
        <mxCell id="k3PXLN8VaXz59WShr0WA-26" value="" style="endArrow=classic;html=1;entryX=0.425;entryY=0;entryDx=0;entryDy=0;entryPerimeter=0;" parent="k3PXLN8VaXz59WShr0WA-1" target="k3PXLN8VaXz59WShr0WA-11" edge="1">
          <mxGeometry width="50" height="50" relative="1" as="geometry">
            <mxPoint x="510" y="460" as="sourcePoint" />
            <mxPoint x="570" y="420" as="targetPoint" />
          </mxGeometry>
        </mxCell>
        <mxCell id="k3PXLN8VaXz59WShr0WA-27" value="" style="endArrow=classic;html=1;entryX=0.5;entryY=0;entryDx=0;entryDy=0;exitX=0.5;exitY=1;exitDx=0;exitDy=0;" parent="k3PXLN8VaXz59WShr0WA-1" source="k3PXLN8VaXz59WShr0WA-4" target="k3PXLN8VaXz59WShr0WA-10" edge="1">
          <mxGeometry width="50" height="50" relative="1" as="geometry">
            <mxPoint x="490" y="460" as="sourcePoint" />
            <mxPoint x="540" y="410" as="targetPoint" />
          </mxGeometry>
        </mxCell>
        <mxCell id="k3PXLN8VaXz59WShr0WA-28" value="" style="endArrow=classic;html=1;" parent="k3PXLN8VaXz59WShr0WA-1" edge="1">
          <mxGeometry width="50" height="50" relative="1" as="geometry">
            <mxPoint x="580" y="270" as="sourcePoint" />
            <mxPoint x="680" y="272" as="targetPoint" />
          </mxGeometry>
        </mxCell>
        <mxCell id="k3PXLN8VaXz59WShr0WA-29" value="" style="endArrow=classic;html=1;entryX=0;entryY=0.5;entryDx=0;entryDy=0;exitX=1;exitY=0.5;exitDx=0;exitDy=0;" parent="k3PXLN8VaXz59WShr0WA-1" source="k3PXLN8VaXz59WShr0WA-6" target="k3PXLN8VaXz59WShr0WA-14" edge="1">
          <mxGeometry width="50" height="50" relative="1" as="geometry">
            <mxPoint x="580" y="430" as="sourcePoint" />
            <mxPoint x="630" y="380" as="targetPoint" />
          </mxGeometry>
        </mxCell>
        <mxCell id="k3PXLN8VaXz59WShr0WA-30" value="&lt;font style=&quot;font-size: 20px&quot;&gt;MiddleWare&lt;/font&gt;" style="rounded=1;whiteSpace=wrap;html=1;fillColor=#aa00ff;strokeColor=#7700CC;fontColor=#ffffff;" parent="k3PXLN8VaXz59WShr0WA-1" vertex="1">
          <mxGeometry x="20" y="320" width="120" height="60" as="geometry" />
        </mxCell>
        <mxCell id="k3PXLN8VaXz59WShr0WA-31" value="" style="endArrow=classic;html=1;entryX=0;entryY=0.5;entryDx=0;entryDy=0;" parent="k3PXLN8VaXz59WShr0WA-1" target="k3PXLN8VaXz59WShr0WA-30" edge="1">
          <mxGeometry width="50" height="50" relative="1" as="geometry">
            <mxPoint x="-70" y="350" as="sourcePoint" />
            <mxPoint x="-20" y="300" as="targetPoint" />
          </mxGeometry>
        </mxCell>
        <mxCell id="k3PXLN8VaXz59WShr0WA-32" value="&lt;font style=&quot;font-size: 20px ; line-height: 270%&quot;&gt;Java openApi接口&lt;br&gt;Kconf配置&lt;br&gt;其他业务方http接口&lt;br&gt;外部http接口&lt;/font&gt;" style="rounded=1;whiteSpace=wrap;html=1;strokeWidth=1;perimeterSpacing=7;align=center;fillColor=#a0522d;strokeColor=#6D1F00;fontColor=#ffffff;" parent="k3PXLN8VaXz59WShr0WA-1" vertex="1">
          <mxGeometry x="890" y="220" width="180" height="250" as="geometry" />
        </mxCell>
        <mxCell id="ZuqPuWvZJg5etmdXzCLJ-0" value="" style="endArrow=classic;html=1;entryX=0;entryY=0.25;entryDx=0;entryDy=0;" parent="k3PXLN8VaXz59WShr0WA-1" target="k3PXLN8VaXz59WShr0WA-32" edge="1">
          <mxGeometry width="50" height="50" relative="1" as="geometry">
            <mxPoint x="800" y="280" as="sourcePoint" />
            <mxPoint x="850" y="230" as="targetPoint" />
          </mxGeometry>
        </mxCell>
        <mxCell id="ZuqPuWvZJg5etmdXzCLJ-1" value="" style="endArrow=classic;html=1;" parent="k3PXLN8VaXz59WShr0WA-1" edge="1">
          <mxGeometry width="50" height="50" relative="1" as="geometry">
            <mxPoint x="800" y="440" as="sourcePoint" />
            <mxPoint x="880" y="440" as="targetPoint" />
          </mxGeometry>
        </mxCell>
      </root>
    </mxGraphModel>
  </diagram>
  <diagram id="97I_MGGqKaw5lGo0yMrM" name="数据流程">
    <mxGraphModel dx="1186" dy="648" grid="1" gridSize="10" guides="1" tooltips="1" connect="1" arrows="1" fold="1" page="1" pageScale="1" pageWidth="827" pageHeight="1169" math="0" shadow="0">
      <root>
        <mxCell id="hQYw4QN-o3KNVJfIfdg--0" />
        <mxCell id="hQYw4QN-o3KNVJfIfdg--1" parent="hQYw4QN-o3KNVJfIfdg--0" />
        <mxCell id="ZTnUpBvhh0ZNWkTEK9uM-0" value="&lt;font style=&quot;font-size: 20px&quot;&gt;Browser&lt;/font&gt;" style="rounded=1;whiteSpace=wrap;html=1;strokeWidth=1;fillColor=#1ba1e2;strokeColor=#006EAF;fontColor=#ffffff;" parent="hQYw4QN-o3KNVJfIfdg--1" vertex="1">
          <mxGeometry x="60" y="330" width="110" height="60" as="geometry" />
        </mxCell>
        <mxCell id="ZTnUpBvhh0ZNWkTEK9uM-1" value="&lt;font style=&quot;font-size: 20px&quot;&gt;Router&lt;/font&gt;" style="rounded=1;whiteSpace=wrap;html=1;strokeWidth=1;fillColor=#1ba1e2;strokeColor=#006EAF;fontColor=#ffffff;" parent="hQYw4QN-o3KNVJfIfdg--1" vertex="1">
          <mxGeometry x="230" y="330" width="110" height="60" as="geometry" />
        </mxCell>
        <mxCell id="ZTnUpBvhh0ZNWkTEK9uM-2" value="&lt;font style=&quot;font-size: 20px&quot;&gt;Controller&lt;/font&gt;" style="rounded=1;whiteSpace=wrap;html=1;strokeWidth=1;fillColor=#1ba1e2;strokeColor=#006EAF;fontColor=#ffffff;" parent="hQYw4QN-o3KNVJfIfdg--1" vertex="1">
          <mxGeometry x="410" y="330" width="110" height="60" as="geometry" />
        </mxCell>
        <mxCell id="ZTnUpBvhh0ZNWkTEK9uM-3" value="&lt;font style=&quot;font-size: 20px&quot;&gt;Service&lt;/font&gt;" style="rounded=1;whiteSpace=wrap;html=1;strokeWidth=1;fillColor=#1ba1e2;strokeColor=#006EAF;fontColor=#ffffff;" parent="hQYw4QN-o3KNVJfIfdg--1" vertex="1">
          <mxGeometry x="717" y="330" width="110" height="60" as="geometry" />
        </mxCell>
        <mxCell id="ZTnUpBvhh0ZNWkTEK9uM-5" value="&lt;font style=&quot;font-size: 20px&quot;&gt;业务接口&lt;/font&gt;" style="rounded=1;whiteSpace=wrap;html=1;strokeWidth=1;fillColor=#0050ef;strokeColor=#001DBC;fontColor=#ffffff;" parent="hQYw4QN-o3KNVJfIfdg--1" vertex="1">
          <mxGeometry x="1210" y="330" width="110" height="60" as="geometry" />
        </mxCell>
        <mxCell id="ZTnUpBvhh0ZNWkTEK9uM-6" value="" style="endArrow=classic;html=1;entryX=0;entryY=0.5;entryDx=0;entryDy=0;" parent="hQYw4QN-o3KNVJfIfdg--1" target="ZTnUpBvhh0ZNWkTEK9uM-1" edge="1">
          <mxGeometry width="50" height="50" relative="1" as="geometry">
            <mxPoint x="170" y="360" as="sourcePoint" />
            <mxPoint x="220" y="310" as="targetPoint" />
          </mxGeometry>
        </mxCell>
        <mxCell id="ZTnUpBvhh0ZNWkTEK9uM-7" value="&lt;font style=&quot;font-size: 16px&quot;&gt;路径映射&lt;/font&gt;" style="shape=callout;whiteSpace=wrap;html=1;perimeter=calloutPerimeter;strokeWidth=1;fillColor=#dae8fc;strokeColor=#6c8ebf;" parent="hQYw4QN-o3KNVJfIfdg--1" vertex="1">
          <mxGeometry x="230" y="260" width="105" height="70" as="geometry" />
        </mxCell>
        <mxCell id="ZTnUpBvhh0ZNWkTEK9uM-8" value="&lt;font style=&quot;font-size: 16px ; line-height: 160%&quot;&gt;参数处理&lt;br&gt;服务调度&lt;br&gt;模板渲染&lt;/font&gt;" style="shape=callout;whiteSpace=wrap;html=1;perimeter=calloutPerimeter;strokeWidth=1;fillColor=#dae8fc;strokeColor=#6c8ebf;" parent="hQYw4QN-o3KNVJfIfdg--1" vertex="1">
          <mxGeometry x="410" y="220" width="110" height="110" as="geometry" />
        </mxCell>
        <mxCell id="ZTnUpBvhh0ZNWkTEK9uM-9" value="&lt;font style=&quot;font-size: 16px ; line-height: 160%&quot;&gt;数据处理&lt;br&gt;Model加工&lt;br&gt;数据调度&lt;/font&gt;" style="shape=callout;whiteSpace=wrap;html=1;perimeter=calloutPerimeter;strokeWidth=1;fillColor=#dae8fc;strokeColor=#6c8ebf;" parent="hQYw4QN-o3KNVJfIfdg--1" vertex="1">
          <mxGeometry x="717" y="210" width="110" height="120" as="geometry" />
        </mxCell>
        <mxCell id="ZTnUpBvhh0ZNWkTEK9uM-10" value="&lt;font style=&quot;font-size: 16px ; line-height: 160%&quot;&gt;参数组装&lt;br&gt;数据简处理&lt;br&gt;接口调用&lt;/font&gt;" style="shape=callout;whiteSpace=wrap;html=1;perimeter=calloutPerimeter;strokeWidth=1;fillColor=#dae8fc;strokeColor=#6c8ebf;" parent="hQYw4QN-o3KNVJfIfdg--1" vertex="1">
          <mxGeometry x="905" y="215" width="120" height="120" as="geometry" />
        </mxCell>
        <mxCell id="ZTnUpBvhh0ZNWkTEK9uM-11" value="" style="endArrow=classic;startArrow=classic;html=1;entryX=0;entryY=0.5;entryDx=0;entryDy=0;" parent="hQYw4QN-o3KNVJfIfdg--1" source="ZTnUpBvhh0ZNWkTEK9uM-4" target="ZTnUpBvhh0ZNWkTEK9uM-5" edge="1">
          <mxGeometry width="50" height="50" relative="1" as="geometry">
            <mxPoint x="890" y="360" as="sourcePoint" />
            <mxPoint x="940" y="310" as="targetPoint" />
          </mxGeometry>
        </mxCell>
        <mxCell id="ZTnUpBvhh0ZNWkTEK9uM-12" value="&lt;font style=&quot;font-size: 18px&quot;&gt;Model&lt;/font&gt;" style="rounded=1;whiteSpace=wrap;html=1;strokeWidth=1;fillColor=#1ba1e2;strokeColor=#006EAF;fontColor=#ffffff;" parent="hQYw4QN-o3KNVJfIfdg--1" vertex="1">
          <mxGeometry x="630" y="500" width="110" height="60" as="geometry" />
        </mxCell>
        <mxCell id="ZTnUpBvhh0ZNWkTEK9uM-13" value="&lt;font style=&quot;font-size: 15px&quot;&gt;Input与output数据&lt;br&gt;模型处理&lt;/font&gt;" style="shape=callout;whiteSpace=wrap;html=1;perimeter=calloutPerimeter;strokeWidth=1;direction=north;fillColor=#dae8fc;strokeColor=#6c8ebf;" parent="hQYw4QN-o3KNVJfIfdg--1" vertex="1">
          <mxGeometry x="470" y="505" width="160" height="50" as="geometry" />
        </mxCell>
        <mxCell id="ZTnUpBvhh0ZNWkTEK9uM-14" value="&lt;font style=&quot;font-size: 18px&quot;&gt;Schema&lt;/font&gt;" style="rounded=1;whiteSpace=wrap;html=1;strokeWidth=1;fillColor=#1ba1e2;strokeColor=#006EAF;fontColor=#ffffff;" parent="hQYw4QN-o3KNVJfIfdg--1" vertex="1">
          <mxGeometry x="785" y="500" width="120" height="60" as="geometry" />
        </mxCell>
        <mxCell id="ZTnUpBvhh0ZNWkTEK9uM-15" value="&lt;span style=&quot;font-size: 15px&quot;&gt;数据库schema&lt;br&gt;定义&lt;/span&gt;" style="shape=callout;whiteSpace=wrap;html=1;perimeter=calloutPerimeter;strokeWidth=1;direction=south;fillColor=#dae8fc;strokeColor=#6c8ebf;" parent="hQYw4QN-o3KNVJfIfdg--1" vertex="1">
          <mxGeometry x="905" y="500" width="160" height="50" as="geometry" />
        </mxCell>
        <mxCell id="ZTnUpBvhh0ZNWkTEK9uM-4" value="&lt;font style=&quot;font-size: 20px&quot;&gt;Dao&lt;/font&gt;" style="rounded=1;whiteSpace=wrap;html=1;strokeWidth=1;fillColor=#1ba1e2;strokeColor=#006EAF;fontColor=#ffffff;" parent="hQYw4QN-o3KNVJfIfdg--1" vertex="1">
          <mxGeometry x="910" y="330" width="110" height="60" as="geometry" />
        </mxCell>
        <mxCell id="ZTnUpBvhh0ZNWkTEK9uM-17" value="&lt;font style=&quot;font-size: 18px&quot;&gt;Views&lt;/font&gt;" style="rounded=1;whiteSpace=wrap;html=1;strokeWidth=1;fillColor=#1ba1e2;strokeColor=#006EAF;fontColor=#ffffff;" parent="hQYw4QN-o3KNVJfIfdg--1" vertex="1">
          <mxGeometry x="414" y="430" width="105" height="50" as="geometry" />
        </mxCell>
        <mxCell id="ZTnUpBvhh0ZNWkTEK9uM-18" value="&lt;span style=&quot;font-size: 15px&quot;&gt;与controller获取&lt;br&gt;的数据渲染&lt;/span&gt;" style="shape=callout;whiteSpace=wrap;html=1;perimeter=calloutPerimeter;strokeWidth=1;direction=north;fillColor=#dae8fc;strokeColor=#6c8ebf;" parent="hQYw4QN-o3KNVJfIfdg--1" vertex="1">
          <mxGeometry x="254" y="430" width="160" height="50" as="geometry" />
        </mxCell>
        <mxCell id="ZTnUpBvhh0ZNWkTEK9uM-19" value="" style="endArrow=classic;html=1;" parent="hQYw4QN-o3KNVJfIfdg--1" edge="1">
          <mxGeometry width="50" height="50" relative="1" as="geometry">
            <mxPoint x="340" y="360" as="sourcePoint" />
            <mxPoint x="400" y="360" as="targetPoint" />
          </mxGeometry>
        </mxCell>
        <mxCell id="ZTnUpBvhh0ZNWkTEK9uM-20" value="" style="endArrow=classic;html=1;" parent="hQYw4QN-o3KNVJfIfdg--1" edge="1">
          <mxGeometry width="50" height="50" relative="1" as="geometry">
            <mxPoint x="520" y="360" as="sourcePoint" />
            <mxPoint x="710" y="360" as="targetPoint" />
          </mxGeometry>
        </mxCell>
        <mxCell id="ZTnUpBvhh0ZNWkTEK9uM-21" value="" style="endArrow=classic;html=1;entryX=0.438;entryY=0;entryDx=0;entryDy=0;entryPerimeter=0;" parent="hQYw4QN-o3KNVJfIfdg--1" target="ZTnUpBvhh0ZNWkTEK9uM-17" edge="1">
          <mxGeometry width="50" height="50" relative="1" as="geometry">
            <mxPoint x="460" y="390" as="sourcePoint" />
            <mxPoint x="510" y="340" as="targetPoint" />
          </mxGeometry>
        </mxCell>
        <mxCell id="ZTnUpBvhh0ZNWkTEK9uM-22" value="" style="endArrow=classic;html=1;entryX=0.5;entryY=0;entryDx=0;entryDy=0;" parent="hQYw4QN-o3KNVJfIfdg--1" target="ZTnUpBvhh0ZNWkTEK9uM-14" edge="1">
          <mxGeometry width="50" height="50" relative="1" as="geometry">
            <mxPoint x="780" y="390" as="sourcePoint" />
            <mxPoint x="830" y="340" as="targetPoint" />
          </mxGeometry>
        </mxCell>
        <mxCell id="ZTnUpBvhh0ZNWkTEK9uM-23" value="" style="endArrow=classic;html=1;entryX=0.5;entryY=0;entryDx=0;entryDy=0;" parent="hQYw4QN-o3KNVJfIfdg--1" target="ZTnUpBvhh0ZNWkTEK9uM-12" edge="1">
          <mxGeometry width="50" height="50" relative="1" as="geometry">
            <mxPoint x="750" y="390" as="sourcePoint" />
            <mxPoint x="800" y="340" as="targetPoint" />
          </mxGeometry>
        </mxCell>
        <mxCell id="ZTnUpBvhh0ZNWkTEK9uM-24" value="" style="endArrow=classic;html=1;entryX=0;entryY=0.5;entryDx=0;entryDy=0;" parent="hQYw4QN-o3KNVJfIfdg--1" target="ZTnUpBvhh0ZNWkTEK9uM-4" edge="1">
          <mxGeometry width="50" height="50" relative="1" as="geometry">
            <mxPoint x="830" y="360" as="sourcePoint" />
            <mxPoint x="880" y="310" as="targetPoint" />
          </mxGeometry>
        </mxCell>
        <mxCell id="ZTnUpBvhh0ZNWkTEK9uM-25" value="" style="edgeStyle=segmentEdgeStyle;endArrow=classic;html=1;entryX=0.5;entryY=1;entryDx=0;entryDy=0;exitX=0.145;exitY=1.067;exitDx=0;exitDy=0;exitPerimeter=0;" parent="hQYw4QN-o3KNVJfIfdg--1" source="ZTnUpBvhh0ZNWkTEK9uM-1" target="ZTnUpBvhh0ZNWkTEK9uM-0" edge="1">
          <mxGeometry width="50" height="50" relative="1" as="geometry">
            <mxPoint x="260" y="390" as="sourcePoint" />
            <mxPoint x="180" y="490" as="targetPoint" />
            <Array as="points">
              <mxPoint x="246" y="450" />
              <mxPoint x="115" y="450" />
            </Array>
          </mxGeometry>
        </mxCell>
      </root>
    </mxGraphModel>
  </diagram>
  <diagram id="tuw9nMEP7_GF2wG67Gp5" name="old-render">
    <mxGraphModel dx="2066" dy="1074" grid="1" gridSize="10" guides="1" tooltips="1" connect="1" arrows="1" fold="1" page="1" pageScale="1" pageWidth="1169" pageHeight="827" math="0" shadow="0">
      <root>
        <mxCell id="Mz4h-hAQ-FefeuFj2e3j-0" />
        <mxCell id="Mz4h-hAQ-FefeuFj2e3j-1" parent="Mz4h-hAQ-FefeuFj2e3j-0" />
        <mxCell id="Mz4h-hAQ-FefeuFj2e3j-2" value="&lt;font style=&quot;font-size: 23px&quot;&gt;用户请求&lt;/font&gt;" style="ellipse;shape=cloud;whiteSpace=wrap;html=1;" vertex="1" parent="Mz4h-hAQ-FefeuFj2e3j-1">
          <mxGeometry x="80" y="230" width="150" height="80" as="geometry" />
        </mxCell>
        <mxCell id="Mz4h-hAQ-FefeuFj2e3j-3" value="&lt;font style=&quot;font-size: 24px;&quot;&gt;gateway&lt;/font&gt;" style="rounded=1;whiteSpace=wrap;html=1;fontSize=24;" vertex="1" parent="Mz4h-hAQ-FefeuFj2e3j-1">
          <mxGeometry x="280" y="240" width="140" height="60" as="geometry" />
        </mxCell>
        <mxCell id="Mz4h-hAQ-FefeuFj2e3j-4" value="&lt;font style=&quot;font-size: 20px&quot;&gt;pageController&lt;br style=&quot;font-size: 24px&quot;&gt;&lt;/font&gt;" style="rounded=1;whiteSpace=wrap;html=1;fontSize=24;" vertex="1" parent="Mz4h-hAQ-FefeuFj2e3j-1">
          <mxGeometry x="460" y="240" width="140" height="60" as="geometry" />
        </mxCell>
        <mxCell id="Mz4h-hAQ-FefeuFj2e3j-5" value="&lt;font style=&quot;font-size: 24px;&quot;&gt;pageService&lt;/font&gt;" style="rounded=1;whiteSpace=wrap;html=1;fontSize=24;" vertex="1" parent="Mz4h-hAQ-FefeuFj2e3j-1">
          <mxGeometry x="640" y="240" width="140" height="60" as="geometry" />
        </mxCell>
        <mxCell id="Mz4h-hAQ-FefeuFj2e3j-6" value="&lt;span style=&quot;font-size: 16px&quot;&gt;CSR-Node&lt;/span&gt;" style="rounded=1;whiteSpace=wrap;html=1;fillColor=#fff2cc;strokeColor=#d6b656;" vertex="1" parent="Mz4h-hAQ-FefeuFj2e3j-1">
          <mxGeometry x="870" y="240" width="120" height="60" as="geometry" />
        </mxCell>
        <mxCell id="Mz4h-hAQ-FefeuFj2e3j-8" value="" style="endArrow=none;html=1;" edge="1" parent="Mz4h-hAQ-FefeuFj2e3j-1">
          <mxGeometry width="50" height="50" relative="1" as="geometry">
            <mxPoint x="793" y="336" as="sourcePoint" />
            <mxPoint x="793" y="336" as="targetPoint" />
            <Array as="points">
              <mxPoint x="253" y="336" />
              <mxPoint x="253" y="136" />
              <mxPoint x="793" y="136" />
            </Array>
          </mxGeometry>
        </mxCell>
        <mxCell id="Mz4h-hAQ-FefeuFj2e3j-9" value="&lt;font size=&quot;1&quot;&gt;&lt;i style=&quot;font-size: 24px&quot;&gt;Java容器云&lt;/i&gt;&lt;/font&gt;" style="text;html=1;align=center;verticalAlign=middle;resizable=0;points=[];autosize=1;" vertex="1" parent="Mz4h-hAQ-FefeuFj2e3j-1">
          <mxGeometry x="640" y="160" width="140" height="20" as="geometry" />
        </mxCell>
        <mxCell id="Mz4h-hAQ-FefeuFj2e3j-10" value="" style="endArrow=none;html=1;" edge="1" parent="Mz4h-hAQ-FefeuFj2e3j-1">
          <mxGeometry width="50" height="50" relative="1" as="geometry">
            <mxPoint x="1040" y="340" as="sourcePoint" />
            <mxPoint x="1040" y="340" as="targetPoint" />
            <Array as="points">
              <mxPoint x="840" y="340" />
              <mxPoint x="840" y="140" />
              <mxPoint x="1040" y="140" />
            </Array>
          </mxGeometry>
        </mxCell>
        <mxCell id="Mz4h-hAQ-FefeuFj2e3j-11" value="&lt;font size=&quot;1&quot;&gt;&lt;i style=&quot;font-size: 24px&quot;&gt;Node KCS&lt;/i&gt;&lt;/font&gt;" style="text;html=1;align=center;verticalAlign=middle;resizable=0;points=[];autosize=1;" vertex="1" parent="Mz4h-hAQ-FefeuFj2e3j-1">
          <mxGeometry x="910" y="180" width="130" height="20" as="geometry" />
        </mxCell>
        <mxCell id="Mz4h-hAQ-FefeuFj2e3j-12" value="" style="endArrow=classic;html=1;entryX=0;entryY=0.5;entryDx=0;entryDy=0;strokeWidth=2;" edge="1" parent="Mz4h-hAQ-FefeuFj2e3j-1" target="Mz4h-hAQ-FefeuFj2e3j-3">
          <mxGeometry width="50" height="50" relative="1" as="geometry">
            <mxPoint x="220" y="270" as="sourcePoint" />
            <mxPoint x="240" y="220" as="targetPoint" />
          </mxGeometry>
        </mxCell>
        <mxCell id="Mz4h-hAQ-FefeuFj2e3j-13" value="" style="endArrow=classic;html=1;strokeWidth=2;" edge="1" parent="Mz4h-hAQ-FefeuFj2e3j-1">
          <mxGeometry width="50" height="50" relative="1" as="geometry">
            <mxPoint x="420" y="270" as="sourcePoint" />
            <mxPoint x="460" y="270" as="targetPoint" />
          </mxGeometry>
        </mxCell>
        <mxCell id="Mz4h-hAQ-FefeuFj2e3j-14" value="" style="endArrow=classic;html=1;strokeWidth=2;" edge="1" parent="Mz4h-hAQ-FefeuFj2e3j-1">
          <mxGeometry width="50" height="50" relative="1" as="geometry">
            <mxPoint x="600" y="270" as="sourcePoint" />
            <mxPoint x="640" y="270" as="targetPoint" />
          </mxGeometry>
        </mxCell>
        <mxCell id="Mz4h-hAQ-FefeuFj2e3j-15" value="" style="endArrow=classic;html=1;strokeWidth=2;exitX=1;exitY=0.5;exitDx=0;exitDy=0;" edge="1" parent="Mz4h-hAQ-FefeuFj2e3j-1" source="Mz4h-hAQ-FefeuFj2e3j-5">
          <mxGeometry width="50" height="50" relative="1" as="geometry">
            <mxPoint x="810" y="270" as="sourcePoint" />
            <mxPoint x="870" y="270.5" as="targetPoint" />
          </mxGeometry>
        </mxCell>
      </root>
    </mxGraphModel>
  </diagram>
  <diagram id="mD56jB2lB_yTGgu6fGXA" name="new-render">
    <mxGraphModel dx="2066" dy="1074" grid="1" gridSize="10" guides="1" tooltips="1" connect="1" arrows="1" fold="1" page="1" pageScale="1" pageWidth="1169" pageHeight="827" math="0" shadow="0">
      <root>
        <mxCell id="m3zlNgg9bTgmzHkQg6Wp-0" />
        <mxCell id="m3zlNgg9bTgmzHkQg6Wp-1" parent="m3zlNgg9bTgmzHkQg6Wp-0" />
        <mxCell id="N1JdyAxh8RQpMZXOxNTM-0" value="&lt;font style=&quot;font-size: 22px;&quot;&gt;用户请求&lt;/font&gt;" style="ellipse;shape=cloud;whiteSpace=wrap;html=1;fontSize=22;" vertex="1" parent="m3zlNgg9bTgmzHkQg6Wp-1">
          <mxGeometry x="210" y="220" width="135" height="80" as="geometry" />
        </mxCell>
        <mxCell id="N1JdyAxh8RQpMZXOxNTM-1" value="&lt;font style=&quot;font-size: 22px;&quot;&gt;gateway&lt;/font&gt;" style="rounded=1;whiteSpace=wrap;html=1;fontSize=22;" vertex="1" parent="m3zlNgg9bTgmzHkQg6Wp-1">
          <mxGeometry x="425" y="230" width="140" height="60" as="geometry" />
        </mxCell>
        <mxCell id="N1JdyAxh8RQpMZXOxNTM-2" value="&lt;font style=&quot;font-size: 22px;&quot;&gt;pageController&lt;br style=&quot;font-size: 22px;&quot;&gt;&lt;/font&gt;" style="rounded=1;whiteSpace=wrap;html=1;fontSize=22;" vertex="1" parent="m3zlNgg9bTgmzHkQg6Wp-1">
          <mxGeometry x="605" y="230" width="140" height="60" as="geometry" />
        </mxCell>
        <mxCell id="f8vQ7JFbxM_hTSPMqpwq-22" value="" style="edgeStyle=orthogonalEdgeStyle;rounded=0;orthogonalLoop=1;jettySize=auto;html=1;dashed=1;dashPattern=1 2;strokeColor=#FF0000;strokeWidth=2;" edge="1" parent="m3zlNgg9bTgmzHkQg6Wp-1" source="N1JdyAxh8RQpMZXOxNTM-3" target="f8vQ7JFbxM_hTSPMqpwq-1">
          <mxGeometry relative="1" as="geometry" />
        </mxCell>
        <mxCell id="N1JdyAxh8RQpMZXOxNTM-3" value="&lt;font style=&quot;font-size: 22px;&quot;&gt;pageService&lt;/font&gt;" style="rounded=1;whiteSpace=wrap;html=1;fontSize=22;" vertex="1" parent="m3zlNgg9bTgmzHkQg6Wp-1">
          <mxGeometry x="785" y="230" width="140" height="60" as="geometry" />
        </mxCell>
        <mxCell id="N1JdyAxh8RQpMZXOxNTM-4" value="&lt;span style=&quot;font-size: 22px;&quot;&gt;CSR-Node&lt;/span&gt;" style="rounded=1;whiteSpace=wrap;html=1;fillColor=#fff2cc;strokeColor=#d6b656;fontSize=22;" vertex="1" parent="m3zlNgg9bTgmzHkQg6Wp-1">
          <mxGeometry x="1520" y="145" width="120" height="60" as="geometry" />
        </mxCell>
        <mxCell id="N1JdyAxh8RQpMZXOxNTM-5" value="" style="endArrow=none;html=1;" edge="1" parent="m3zlNgg9bTgmzHkQg6Wp-1">
          <mxGeometry width="50" height="50" relative="1" as="geometry">
            <mxPoint x="1400" y="480" as="sourcePoint" />
            <mxPoint x="1400" y="480" as="targetPoint" />
            <Array as="points">
              <mxPoint x="400" y="480" />
              <mxPoint x="403" y="40" />
              <mxPoint x="1400" y="40" />
            </Array>
          </mxGeometry>
        </mxCell>
        <mxCell id="N1JdyAxh8RQpMZXOxNTM-6" value="&lt;font size=&quot;1&quot;&gt;&lt;i style=&quot;font-size: 28px&quot;&gt;Java层&lt;/i&gt;&lt;/font&gt;" style="text;html=1;align=center;verticalAlign=middle;resizable=0;points=[];autosize=1;" vertex="1" parent="m3zlNgg9bTgmzHkQg6Wp-1">
          <mxGeometry x="875" y="55" width="100" height="30" as="geometry" />
        </mxCell>
        <mxCell id="N1JdyAxh8RQpMZXOxNTM-7" value="" style="endArrow=none;html=1;" edge="1" parent="m3zlNgg9bTgmzHkQg6Wp-1">
          <mxGeometry width="50" height="50" relative="1" as="geometry">
            <mxPoint x="1680" y="480" as="sourcePoint" />
            <mxPoint x="1680" y="480" as="targetPoint" />
            <Array as="points">
              <mxPoint x="1480" y="480" />
              <mxPoint x="1480" y="40" />
              <mxPoint x="1680" y="40" />
            </Array>
          </mxGeometry>
        </mxCell>
        <mxCell id="N1JdyAxh8RQpMZXOxNTM-9" value="" style="endArrow=classic;html=1;entryX=0;entryY=0.5;entryDx=0;entryDy=0;strokeWidth=2;strokeColor=#FF3333;" edge="1" target="N1JdyAxh8RQpMZXOxNTM-1" parent="m3zlNgg9bTgmzHkQg6Wp-1">
          <mxGeometry width="50" height="50" relative="1" as="geometry">
            <mxPoint x="335" y="260" as="sourcePoint" />
            <mxPoint x="385" y="210" as="targetPoint" />
          </mxGeometry>
        </mxCell>
        <mxCell id="N1JdyAxh8RQpMZXOxNTM-10" value="" style="endArrow=classic;html=1;strokeWidth=2;strokeColor=#FF0000;" edge="1" parent="m3zlNgg9bTgmzHkQg6Wp-1">
          <mxGeometry width="50" height="50" relative="1" as="geometry">
            <mxPoint x="570" y="260" as="sourcePoint" />
            <mxPoint x="605" y="260" as="targetPoint" />
          </mxGeometry>
        </mxCell>
        <mxCell id="N1JdyAxh8RQpMZXOxNTM-11" value="" style="endArrow=classic;html=1;strokeWidth=2;strokeColor=#FF0000;" edge="1" parent="m3zlNgg9bTgmzHkQg6Wp-1">
          <mxGeometry width="50" height="50" relative="1" as="geometry">
            <mxPoint x="750" y="260" as="sourcePoint" />
            <mxPoint x="785" y="260" as="targetPoint" />
          </mxGeometry>
        </mxCell>
        <mxCell id="N1JdyAxh8RQpMZXOxNTM-13" value="&lt;font size=&quot;1&quot;&gt;&lt;i style=&quot;font-size: 28px&quot;&gt;NODE层&lt;/i&gt;&lt;/font&gt;" style="text;html=1;align=center;verticalAlign=middle;resizable=0;points=[];autosize=1;" vertex="1" parent="m3zlNgg9bTgmzHkQg6Wp-1">
          <mxGeometry x="1520" y="55" width="120" height="30" as="geometry" />
        </mxCell>
        <mxCell id="f8vQ7JFbxM_hTSPMqpwq-0" value="&lt;span style=&quot;font-size: 22px;&quot;&gt;SSR-Node&lt;/span&gt;" style="rounded=1;whiteSpace=wrap;html=1;fillColor=#fff2cc;strokeColor=#d6b656;fontSize=22;" vertex="1" parent="m3zlNgg9bTgmzHkQg6Wp-1">
          <mxGeometry x="1520" y="320" width="120" height="60" as="geometry" />
        </mxCell>
        <mxCell id="f8vQ7JFbxM_hTSPMqpwq-1" value="&lt;font style=&quot;font-size: 20px;&quot;&gt;白名单&lt;/font&gt;" style="ellipse;whiteSpace=wrap;html=1;aspect=fixed;fontSize=20;" vertex="1" parent="m3zlNgg9bTgmzHkQg6Wp-1">
          <mxGeometry x="970" y="220" width="80" height="80" as="geometry" />
        </mxCell>
        <mxCell id="f8vQ7JFbxM_hTSPMqpwq-2" value="&lt;font style=&quot;font-size: 20px;&quot;&gt;pageService&lt;/font&gt;" style="rounded=1;whiteSpace=wrap;html=1;fontSize=20;" vertex="1" parent="m3zlNgg9bTgmzHkQg6Wp-1">
          <mxGeometry x="1230" y="140" width="140" height="60" as="geometry" />
        </mxCell>
        <mxCell id="f8vQ7JFbxM_hTSPMqpwq-3" value="&lt;font style=&quot;font-size: 20px;&quot;&gt;pageService&lt;/font&gt;" style="rounded=1;whiteSpace=wrap;html=1;fontSize=20;" vertex="1" parent="m3zlNgg9bTgmzHkQg6Wp-1">
          <mxGeometry x="1080" y="320" width="140" height="60" as="geometry" />
        </mxCell>
        <mxCell id="f8vQ7JFbxM_hTSPMqpwq-4" value="&lt;span style=&quot;font-size: 20px;&quot;&gt;A/B&lt;br style=&quot;font-size: 20px;&quot;&gt;random&lt;br style=&quot;font-size: 20px;&quot;&gt;&lt;/span&gt;" style="ellipse;whiteSpace=wrap;html=1;aspect=fixed;fontSize=20;" vertex="1" parent="m3zlNgg9bTgmzHkQg6Wp-1">
          <mxGeometry x="1260" y="308" width="80" height="80" as="geometry" />
        </mxCell>
        <mxCell id="f8vQ7JFbxM_hTSPMqpwq-5" value="" style="endArrow=classic;html=1;strokeWidth=2;entryX=0;entryY=0.5;entryDx=0;entryDy=0;strokeColor=#FF0000;" edge="1" parent="m3zlNgg9bTgmzHkQg6Wp-1" target="f8vQ7JFbxM_hTSPMqpwq-1">
          <mxGeometry width="50" height="50" relative="1" as="geometry">
            <mxPoint x="930" y="260" as="sourcePoint" />
            <mxPoint x="965" y="260" as="targetPoint" />
          </mxGeometry>
        </mxCell>
        <mxCell id="f8vQ7JFbxM_hTSPMqpwq-6" value="" style="endArrow=classic;html=1;strokeWidth=2;entryX=0;entryY=0.5;entryDx=0;entryDy=0;exitX=0.5;exitY=1;exitDx=0;exitDy=0;strokeColor=#FF0000;" edge="1" parent="m3zlNgg9bTgmzHkQg6Wp-1" source="f8vQ7JFbxM_hTSPMqpwq-1" target="f8vQ7JFbxM_hTSPMqpwq-3">
          <mxGeometry width="50" height="50" relative="1" as="geometry">
            <mxPoint x="940" y="340" as="sourcePoint" />
            <mxPoint x="1020" y="380.5" as="targetPoint" />
            <Array as="points">
              <mxPoint x="1010" y="350" />
            </Array>
          </mxGeometry>
        </mxCell>
        <mxCell id="f8vQ7JFbxM_hTSPMqpwq-10" value="&lt;font style=&quot;font-size: 18px&quot; color=&quot;#666666&quot;&gt;&lt;i&gt;白名单&lt;/i&gt;&lt;/font&gt;" style="edgeLabel;html=1;align=center;verticalAlign=middle;resizable=0;points=[];" vertex="1" connectable="0" parent="f8vQ7JFbxM_hTSPMqpwq-6">
          <mxGeometry x="0.1833" relative="1" as="geometry">
            <mxPoint x="9" as="offset" />
          </mxGeometry>
        </mxCell>
        <mxCell id="f8vQ7JFbxM_hTSPMqpwq-8" value="" style="endArrow=classic;html=1;strokeWidth=2;entryX=0;entryY=0.5;entryDx=0;entryDy=0;exitX=0.5;exitY=0;exitDx=0;exitDy=0;" edge="1" parent="m3zlNgg9bTgmzHkQg6Wp-1" source="f8vQ7JFbxM_hTSPMqpwq-1" target="f8vQ7JFbxM_hTSPMqpwq-2">
          <mxGeometry width="50" height="50" relative="1" as="geometry">
            <mxPoint x="980" y="180" as="sourcePoint" />
            <mxPoint x="1205" y="160.5" as="targetPoint" />
            <Array as="points">
              <mxPoint x="1010" y="170" />
            </Array>
          </mxGeometry>
        </mxCell>
        <mxCell id="f8vQ7JFbxM_hTSPMqpwq-9" value="&lt;font color=&quot;#666666&quot; size=&quot;1&quot;&gt;&lt;i style=&quot;font-size: 18px&quot;&gt;非白名单&lt;/i&gt;&lt;/font&gt;" style="edgeLabel;html=1;align=center;verticalAlign=middle;resizable=0;points=[];" vertex="1" connectable="0" parent="f8vQ7JFbxM_hTSPMqpwq-8">
          <mxGeometry x="0.0714" y="1" relative="1" as="geometry">
            <mxPoint as="offset" />
          </mxGeometry>
        </mxCell>
        <mxCell id="f8vQ7JFbxM_hTSPMqpwq-11" value="" style="endArrow=classic;html=1;strokeWidth=2;strokeColor=#FF0000;" edge="1" parent="m3zlNgg9bTgmzHkQg6Wp-1">
          <mxGeometry width="50" height="50" relative="1" as="geometry">
            <mxPoint x="1220" y="350" as="sourcePoint" />
            <mxPoint x="1260" y="350" as="targetPoint" />
          </mxGeometry>
        </mxCell>
        <mxCell id="f8vQ7JFbxM_hTSPMqpwq-12" value="" style="endArrow=classic;html=1;strokeWidth=2;entryX=0.5;entryY=1;entryDx=0;entryDy=0;exitX=0.5;exitY=0;exitDx=0;exitDy=0;" edge="1" parent="m3zlNgg9bTgmzHkQg6Wp-1" source="f8vQ7JFbxM_hTSPMqpwq-4" target="f8vQ7JFbxM_hTSPMqpwq-2">
          <mxGeometry width="50" height="50" relative="1" as="geometry">
            <mxPoint x="1310" y="230" as="sourcePoint" />
            <mxPoint x="1375" y="230.5" as="targetPoint" />
          </mxGeometry>
        </mxCell>
        <mxCell id="f8vQ7JFbxM_hTSPMqpwq-13" value="&lt;font style=&quot;font-size: 18px&quot; color=&quot;#666666&quot;&gt;&lt;i&gt;X%对照组&lt;/i&gt;&lt;/font&gt;" style="edgeLabel;html=1;align=center;verticalAlign=middle;resizable=0;points=[];" vertex="1" connectable="0" parent="f8vQ7JFbxM_hTSPMqpwq-12">
          <mxGeometry y="3" relative="1" as="geometry">
            <mxPoint as="offset" />
          </mxGeometry>
        </mxCell>
        <mxCell id="f8vQ7JFbxM_hTSPMqpwq-14" value="" style="endArrow=classic;html=1;strokeWidth=2;exitX=1;exitY=0.5;exitDx=0;exitDy=0;strokeColor=#FF0000;" edge="1" parent="m3zlNgg9bTgmzHkQg6Wp-1" source="f8vQ7JFbxM_hTSPMqpwq-4">
          <mxGeometry width="50" height="50" relative="1" as="geometry">
            <mxPoint x="1420" y="330" as="sourcePoint" />
            <mxPoint x="1520" y="350" as="targetPoint" />
          </mxGeometry>
        </mxCell>
        <mxCell id="f8vQ7JFbxM_hTSPMqpwq-15" value="&lt;font style=&quot;font-size: 14px&quot;&gt;Y%实验组&lt;/font&gt;" style="edgeLabel;html=1;align=center;verticalAlign=middle;resizable=0;points=[];" vertex="1" connectable="0" parent="f8vQ7JFbxM_hTSPMqpwq-14">
          <mxGeometry x="-0.1" relative="1" as="geometry">
            <mxPoint x="19" y="-0.9" as="offset" />
          </mxGeometry>
        </mxCell>
        <mxCell id="f8vQ7JFbxM_hTSPMqpwq-16" value="" style="endArrow=classic;html=1;strokeWidth=2;exitX=1;exitY=0.5;exitDx=0;exitDy=0;" edge="1" parent="m3zlNgg9bTgmzHkQg6Wp-1" source="f8vQ7JFbxM_hTSPMqpwq-2">
          <mxGeometry width="50" height="50" relative="1" as="geometry">
            <mxPoint x="1460" y="160" as="sourcePoint" />
            <mxPoint x="1520" y="170" as="targetPoint" />
          </mxGeometry>
        </mxCell>
        <mxCell id="f8vQ7JFbxM_hTSPMqpwq-17" value="" style="endArrow=classic;html=1;strokeWidth=2;dashed=1;dashPattern=1 2;" edge="1" parent="m3zlNgg9bTgmzHkQg6Wp-1">
          <mxGeometry width="50" height="50" relative="1" as="geometry">
            <mxPoint x="1010" y="350" as="sourcePoint" />
            <mxPoint x="1010" y="400" as="targetPoint" />
          </mxGeometry>
        </mxCell>
        <mxCell id="f8vQ7JFbxM_hTSPMqpwq-19" value="&lt;font style=&quot;font-size: 18px&quot; color=&quot;#666666&quot;&gt;&lt;i&gt;&amp;nbsp;Kconf Switch&lt;/i&gt;&lt;/font&gt;" style="text;html=1;align=center;verticalAlign=middle;resizable=0;points=[];autosize=1;" vertex="1" parent="m3zlNgg9bTgmzHkQg6Wp-1">
          <mxGeometry x="950" y="404" width="120" height="20" as="geometry" />
        </mxCell>
        <mxCell id="f8vQ7JFbxM_hTSPMqpwq-20" value="" style="endArrow=classic;html=1;strokeWidth=2;dashed=1;dashPattern=1 2;" edge="1" parent="m3zlNgg9bTgmzHkQg6Wp-1">
          <mxGeometry width="50" height="50" relative="1" as="geometry">
            <mxPoint x="1300" y="390" as="sourcePoint" />
            <mxPoint x="1300" y="430" as="targetPoint" />
          </mxGeometry>
        </mxCell>
        <mxCell id="f8vQ7JFbxM_hTSPMqpwq-21" value="&lt;font style=&quot;font-size: 18px&quot; color=&quot;#666666&quot;&gt;&lt;i&gt;Kconf Switch&lt;/i&gt;&lt;/font&gt;" style="text;html=1;align=center;verticalAlign=middle;resizable=0;points=[];autosize=1;" vertex="1" parent="m3zlNgg9bTgmzHkQg6Wp-1">
          <mxGeometry x="1250" y="430" width="120" height="20" as="geometry" />
        </mxCell>
      </root>
    </mxGraphModel>
  </diagram>
  <diagram id="nvL4PPFAsB0kZm_gwaSl" name="服务架构">
    <mxGraphModel dx="2066" dy="978" grid="1" gridSize="10" guides="1" tooltips="1" connect="1" arrows="1" fold="1" page="1" pageScale="1" pageWidth="1169" pageHeight="827" math="0" shadow="0">
      <root>
        <mxCell id="gzl_tsDSNwr4_2YUXKIT-0" />
        <mxCell id="gzl_tsDSNwr4_2YUXKIT-1" parent="gzl_tsDSNwr4_2YUXKIT-0" />
        <mxCell id="gzl_tsDSNwr4_2YUXKIT-43" value="" style="rounded=0;whiteSpace=wrap;html=1;dashed=1;" parent="gzl_tsDSNwr4_2YUXKIT-1" vertex="1">
          <mxGeometry x="560" y="300" width="990" height="890" as="geometry" />
        </mxCell>
        <mxCell id="gzl_tsDSNwr4_2YUXKIT-13" value="" style="rounded=0;whiteSpace=wrap;html=1;fillColor=#dae8fc;strokeColor=#6c8ebf;" parent="gzl_tsDSNwr4_2YUXKIT-1" vertex="1">
          <mxGeometry x="970" y="330" width="560" height="180" as="geometry" />
        </mxCell>
        <mxCell id="gzl_tsDSNwr4_2YUXKIT-5" value="&lt;font style=&quot;font-size: 21px&quot;&gt;KSP&lt;/font&gt;" style="rounded=1;whiteSpace=wrap;html=1;" parent="gzl_tsDSNwr4_2YUXKIT-1" vertex="1">
          <mxGeometry x="260" y="400" width="110" height="60" as="geometry" />
        </mxCell>
        <mxCell id="gzl_tsDSNwr4_2YUXKIT-7" value="&lt;font size=&quot;1&quot;&gt;&lt;i style=&quot;font-size: 28px&quot;&gt;CDN&lt;/i&gt;&lt;/font&gt;" style="rounded=0;whiteSpace=wrap;html=1;fillColor=#fad7ac;strokeColor=#b46504;" parent="gzl_tsDSNwr4_2YUXKIT-1" vertex="1">
          <mxGeometry x="265" y="565" width="110" height="50" as="geometry" />
        </mxCell>
        <mxCell id="gzl_tsDSNwr4_2YUXKIT-14" value="&lt;font size=&quot;1&quot; color=&quot;#ff5000&quot;&gt;&lt;i style=&quot;font-size: 24px&quot;&gt;上线更新模块&lt;/i&gt;&lt;/font&gt;" style="text;html=1;align=center;verticalAlign=middle;resizable=0;points=[];autosize=1;" parent="gzl_tsDSNwr4_2YUXKIT-1" vertex="1">
          <mxGeometry x="1350" y="350" width="160" height="20" as="geometry" />
        </mxCell>
        <mxCell id="gzl_tsDSNwr4_2YUXKIT-16" value="&lt;font style=&quot;font-size: 20px&quot;&gt;参数校验&lt;/font&gt;" style="rounded=1;whiteSpace=wrap;html=1;" parent="gzl_tsDSNwr4_2YUXKIT-1" vertex="1">
          <mxGeometry x="1009" y="400" width="140" height="60" as="geometry" />
        </mxCell>
        <mxCell id="gzl_tsDSNwr4_2YUXKIT-17" value="&lt;span style=&quot;font-size: 20px&quot;&gt;存储version&lt;br&gt;和manifest&lt;br&gt;&lt;/span&gt;" style="rounded=1;whiteSpace=wrap;html=1;" parent="gzl_tsDSNwr4_2YUXKIT-1" vertex="1">
          <mxGeometry x="1229" y="400" width="140" height="60" as="geometry" />
        </mxCell>
        <mxCell id="gzl_tsDSNwr4_2YUXKIT-18" value="" style="rounded=0;whiteSpace=wrap;html=1;fillColor=#d5e8d4;strokeColor=#82b366;" parent="gzl_tsDSNwr4_2YUXKIT-1" vertex="1">
          <mxGeometry x="590" y="540" width="940" height="260" as="geometry" />
        </mxCell>
        <mxCell id="gzl_tsDSNwr4_2YUXKIT-19" value="&lt;font&gt;&lt;font style=&quot;font-size: 20px&quot;&gt;执行定时任务&lt;/font&gt;&lt;br&gt;&lt;/font&gt;" style="rounded=1;whiteSpace=wrap;html=1;" parent="gzl_tsDSNwr4_2YUXKIT-1" vertex="1">
          <mxGeometry x="630" y="619" width="140" height="60" as="geometry" />
        </mxCell>
        <mxCell id="gzl_tsDSNwr4_2YUXKIT-20" value="&lt;font style=&quot;font-size: 16px&quot;&gt;读取Redis&lt;/font&gt;" style="rhombus;whiteSpace=wrap;html=1;" parent="gzl_tsDSNwr4_2YUXKIT-1" vertex="1">
          <mxGeometry x="819" y="605" width="120" height="80" as="geometry" />
        </mxCell>
        <mxCell id="gzl_tsDSNwr4_2YUXKIT-21" value="&lt;font style=&quot;font-size: 20px&quot;&gt;Write File&lt;/font&gt;" style="rounded=1;whiteSpace=wrap;html=1;" parent="gzl_tsDSNwr4_2YUXKIT-1" vertex="1">
          <mxGeometry x="1009" y="615" width="140" height="60" as="geometry" />
        </mxCell>
        <mxCell id="gzl_tsDSNwr4_2YUXKIT-22" value="&lt;font style=&quot;font-size: 20px&quot;&gt;本地磁盘&lt;br&gt;(静态资源)&lt;/font&gt;" style="shape=document;whiteSpace=wrap;html=1;boundedLbl=1;" parent="gzl_tsDSNwr4_2YUXKIT-1" vertex="1">
          <mxGeometry x="1324.5" y="635" width="160.5" height="110" as="geometry" />
        </mxCell>
        <mxCell id="gzl_tsDSNwr4_2YUXKIT-23" value="&lt;font size=&quot;1&quot; color=&quot;#ff5000&quot;&gt;&lt;i style=&quot;font-size: 24px&quot;&gt;文件系统模块&lt;/i&gt;&lt;/font&gt;" style="text;html=1;align=center;verticalAlign=middle;resizable=0;points=[];autosize=1;" parent="gzl_tsDSNwr4_2YUXKIT-1" vertex="1">
          <mxGeometry x="1350" y="565" width="160" height="20" as="geometry" />
        </mxCell>
        <mxCell id="gzl_tsDSNwr4_2YUXKIT-24" value="&lt;font style=&quot;font-size: 20px&quot;&gt;Read File&lt;/font&gt;" style="rounded=1;whiteSpace=wrap;html=1;" parent="gzl_tsDSNwr4_2YUXKIT-1" vertex="1">
          <mxGeometry x="1009" y="730" width="140" height="60" as="geometry" />
        </mxCell>
        <mxCell id="gzl_tsDSNwr4_2YUXKIT-26" value="" style="rounded=0;whiteSpace=wrap;html=1;fillColor=#b0e3e6;strokeColor=#0e8088;" parent="gzl_tsDSNwr4_2YUXKIT-1" vertex="1">
          <mxGeometry x="590" y="830" width="940" height="330" as="geometry" />
        </mxCell>
        <mxCell id="gzl_tsDSNwr4_2YUXKIT-27" value="&lt;font&gt;&lt;font style=&quot;font-size: 20px&quot;&gt;获取global 变量&lt;/font&gt;&lt;br&gt;&lt;/font&gt;" style="rounded=1;whiteSpace=wrap;html=1;" parent="gzl_tsDSNwr4_2YUXKIT-1" vertex="1">
          <mxGeometry x="630" y="975" width="160" height="60" as="geometry" />
        </mxCell>
        <mxCell id="gzl_tsDSNwr4_2YUXKIT-28" value="&lt;font style=&quot;font-size: 16px&quot;&gt;检查当前 version&lt;/font&gt;" style="rhombus;whiteSpace=wrap;html=1;" parent="gzl_tsDSNwr4_2YUXKIT-1" vertex="1">
          <mxGeometry x="819" y="965" width="120" height="80" as="geometry" />
        </mxCell>
        <mxCell id="gzl_tsDSNwr4_2YUXKIT-29" value="&lt;font&gt;&lt;font style=&quot;font-size: 20px&quot;&gt;获取SSR文件&lt;/font&gt;&lt;br&gt;&lt;/font&gt;" style="rounded=1;whiteSpace=wrap;html=1;" parent="gzl_tsDSNwr4_2YUXKIT-1" vertex="1">
          <mxGeometry x="1009" y="850" width="140" height="60" as="geometry" />
        </mxCell>
        <mxCell id="gzl_tsDSNwr4_2YUXKIT-30" value="&lt;font&gt;&lt;font style=&quot;font-size: 20px&quot;&gt;获取HTML&lt;/font&gt;&lt;br&gt;&lt;/font&gt;" style="rounded=1;whiteSpace=wrap;html=1;" parent="gzl_tsDSNwr4_2YUXKIT-1" vertex="1">
          <mxGeometry x="1009" y="975" width="140" height="60" as="geometry" />
        </mxCell>
        <mxCell id="gzl_tsDSNwr4_2YUXKIT-31" value="&lt;font&gt;&lt;font style=&quot;font-size: 20px&quot;&gt;获取CSS&lt;/font&gt;&lt;br&gt;&lt;/font&gt;" style="rounded=1;whiteSpace=wrap;html=1;" parent="gzl_tsDSNwr4_2YUXKIT-1" vertex="1">
          <mxGeometry x="1009" y="1090" width="140" height="60" as="geometry" />
        </mxCell>
        <mxCell id="gzl_tsDSNwr4_2YUXKIT-32" value="&lt;font&gt;&lt;font style=&quot;font-size: 22px&quot;&gt;render&lt;/font&gt;&lt;br&gt;&lt;/font&gt;" style="rounded=1;whiteSpace=wrap;html=1;" parent="gzl_tsDSNwr4_2YUXKIT-1" vertex="1">
          <mxGeometry x="1218.5" y="850" width="140" height="60" as="geometry" />
        </mxCell>
        <mxCell id="gzl_tsDSNwr4_2YUXKIT-33" value="&lt;font&gt;&lt;font style=&quot;font-size: 20px&quot;&gt;拼接html&lt;/font&gt;&lt;br&gt;&lt;/font&gt;" style="rounded=1;whiteSpace=wrap;html=1;" parent="gzl_tsDSNwr4_2YUXKIT-1" vertex="1">
          <mxGeometry x="1390" y="975" width="120" height="60" as="geometry" />
        </mxCell>
        <mxCell id="gzl_tsDSNwr4_2YUXKIT-34" value="&lt;font size=&quot;1&quot; color=&quot;#ff5000&quot;&gt;&lt;i style=&quot;font-size: 24px&quot;&gt;渲染模块&lt;/i&gt;&lt;/font&gt;" style="text;html=1;align=center;verticalAlign=middle;resizable=0;points=[];autosize=1;" parent="gzl_tsDSNwr4_2YUXKIT-1" vertex="1">
          <mxGeometry x="1390" y="850" width="110" height="20" as="geometry" />
        </mxCell>
        <mxCell id="gzl_tsDSNwr4_2YUXKIT-36" value="&lt;font&gt;&lt;font style=&quot;font-size: 24px&quot;&gt;Java / Ngx&lt;/font&gt;&lt;br&gt;&lt;/font&gt;" style="rounded=1;whiteSpace=wrap;html=1;" parent="gzl_tsDSNwr4_2YUXKIT-1" vertex="1">
          <mxGeometry x="250" y="975" width="140" height="60" as="geometry" />
        </mxCell>
        <mxCell id="gzl_tsDSNwr4_2YUXKIT-40" value="" style="endArrow=classic;html=1;strokeColor=#33001A;strokeWidth=2;entryX=0;entryY=0.5;entryDx=0;entryDy=0;exitX=1;exitY=0.5;exitDx=0;exitDy=0;" parent="gzl_tsDSNwr4_2YUXKIT-1" source="gzl_tsDSNwr4_2YUXKIT-5" target="gzl_tsDSNwr4_2YUXKIT-16" edge="1">
          <mxGeometry width="50" height="50" relative="1" as="geometry">
            <mxPoint x="610" y="430" as="sourcePoint" />
            <mxPoint x="660" y="380" as="targetPoint" />
          </mxGeometry>
        </mxCell>
        <mxCell id="gzl_tsDSNwr4_2YUXKIT-41" value="&lt;font style=&quot;font-size: 18px&quot; color=&quot;#666666&quot;&gt;&lt;i&gt;Hooks(manifest+version)&lt;/i&gt;&lt;/font&gt;" style="edgeLabel;html=1;align=center;verticalAlign=middle;resizable=0;points=[];" parent="gzl_tsDSNwr4_2YUXKIT-40" vertex="1" connectable="0">
          <mxGeometry x="-0.1156" y="2" relative="1" as="geometry">
            <mxPoint x="37" as="offset" />
          </mxGeometry>
        </mxCell>
        <mxCell id="gzl_tsDSNwr4_2YUXKIT-46" value="&lt;font style=&quot;font-size: 32px&quot;&gt;&lt;b&gt;SSR服务&lt;/b&gt;&lt;/font&gt;" style="text;html=1;align=center;verticalAlign=middle;resizable=0;points=[];autosize=1;" parent="gzl_tsDSNwr4_2YUXKIT-1" vertex="1">
          <mxGeometry x="600" y="320" width="150" height="30" as="geometry" />
        </mxCell>
        <mxCell id="gzl_tsDSNwr4_2YUXKIT-49" value="" style="endArrow=classic;html=1;strokeColor=#33001A;strokeWidth=2;entryX=0;entryY=0.5;entryDx=0;entryDy=0;" parent="gzl_tsDSNwr4_2YUXKIT-1" target="gzl_tsDSNwr4_2YUXKIT-20" edge="1">
          <mxGeometry width="50" height="50" relative="1" as="geometry">
            <mxPoint x="770" y="645" as="sourcePoint" />
            <mxPoint x="820" y="595" as="targetPoint" />
          </mxGeometry>
        </mxCell>
        <mxCell id="gzl_tsDSNwr4_2YUXKIT-50" value="" style="endArrow=classic;html=1;strokeColor=#33001A;strokeWidth=2;entryX=0;entryY=0.5;entryDx=0;entryDy=0;" parent="gzl_tsDSNwr4_2YUXKIT-1" target="gzl_tsDSNwr4_2YUXKIT-21" edge="1">
          <mxGeometry width="50" height="50" relative="1" as="geometry">
            <mxPoint x="940" y="645" as="sourcePoint" />
            <mxPoint x="990" y="595" as="targetPoint" />
          </mxGeometry>
        </mxCell>
        <mxCell id="gzl_tsDSNwr4_2YUXKIT-53" value="" style="endArrow=classic;html=1;strokeColor=#33001A;strokeWidth=2;exitX=1;exitY=0.5;exitDx=0;exitDy=0;entryX=0;entryY=0.5;entryDx=0;entryDy=0;" parent="gzl_tsDSNwr4_2YUXKIT-1" source="gzl_tsDSNwr4_2YUXKIT-21" target="gzl_tsDSNwr4_2YUXKIT-22" edge="1">
          <mxGeometry width="50" height="50" relative="1" as="geometry">
            <mxPoint x="1130" y="574" as="sourcePoint" />
            <mxPoint x="1324.5" y="730" as="targetPoint" />
            <Array as="points">
              <mxPoint x="1260" y="645" />
              <mxPoint x="1260" y="690" />
            </Array>
          </mxGeometry>
        </mxCell>
        <mxCell id="jqXbDSH13-KjsAYpCUqP-0" value="&lt;font style=&quot;font-size: 18px&quot; color=&quot;#666666&quot;&gt;&lt;i&gt;manifest&lt;/i&gt;&lt;/font&gt;" style="edgeLabel;html=1;align=center;verticalAlign=middle;resizable=0;points=[];" parent="gzl_tsDSNwr4_2YUXKIT-53" vertex="1" connectable="0">
          <mxGeometry x="-0.5876" y="2" relative="1" as="geometry">
            <mxPoint x="16" y="2" as="offset" />
          </mxGeometry>
        </mxCell>
        <mxCell id="gzl_tsDSNwr4_2YUXKIT-54" value="" style="endArrow=classic;html=1;strokeColor=#33001A;strokeWidth=2;entryX=0;entryY=0.5;entryDx=0;entryDy=0;exitX=1;exitY=0.5;exitDx=0;exitDy=0;" parent="gzl_tsDSNwr4_2YUXKIT-1" source="gzl_tsDSNwr4_2YUXKIT-24" target="gzl_tsDSNwr4_2YUXKIT-22" edge="1">
          <mxGeometry width="50" height="50" relative="1" as="geometry">
            <mxPoint x="1130" y="684" as="sourcePoint" />
            <mxPoint x="1210" y="614" as="targetPoint" />
            <Array as="points">
              <mxPoint x="1260" y="760" />
              <mxPoint x="1260" y="690" />
            </Array>
          </mxGeometry>
        </mxCell>
        <mxCell id="gzl_tsDSNwr4_2YUXKIT-56" value="" style="endArrow=classic;html=1;strokeColor=#33001A;strokeWidth=2;entryX=0;entryY=0.5;entryDx=0;entryDy=0;exitX=1;exitY=0.5;exitDx=0;exitDy=0;" parent="gzl_tsDSNwr4_2YUXKIT-1" source="gzl_tsDSNwr4_2YUXKIT-36" target="gzl_tsDSNwr4_2YUXKIT-27" edge="1">
          <mxGeometry width="50" height="50" relative="1" as="geometry">
            <mxPoint x="460" y="1005" as="sourcePoint" />
            <mxPoint x="430" y="1030" as="targetPoint" />
            <Array as="points" />
          </mxGeometry>
        </mxCell>
        <mxCell id="gzl_tsDSNwr4_2YUXKIT-57" value="&lt;font style=&quot;font-size: 18px&quot; color=&quot;#666666&quot;&gt;&lt;i&gt;pageJson调用&lt;/i&gt;&lt;/font&gt;" style="edgeLabel;html=1;align=center;verticalAlign=middle;resizable=0;points=[];" parent="gzl_tsDSNwr4_2YUXKIT-56" vertex="1" connectable="0">
          <mxGeometry x="-0.171" y="3" relative="1" as="geometry">
            <mxPoint y="3" as="offset" />
          </mxGeometry>
        </mxCell>
        <mxCell id="gzl_tsDSNwr4_2YUXKIT-58" value="" style="endArrow=classic;html=1;strokeColor=#33001A;strokeWidth=2;entryX=0;entryY=0.5;entryDx=0;entryDy=0;exitX=1;exitY=0.5;exitDx=0;exitDy=0;" parent="gzl_tsDSNwr4_2YUXKIT-1" source="gzl_tsDSNwr4_2YUXKIT-27" target="gzl_tsDSNwr4_2YUXKIT-28" edge="1">
          <mxGeometry width="50" height="50" relative="1" as="geometry">
            <mxPoint x="770" y="1010" as="sourcePoint" />
            <mxPoint x="820" y="960" as="targetPoint" />
          </mxGeometry>
        </mxCell>
        <mxCell id="gzl_tsDSNwr4_2YUXKIT-59" value="" style="endArrow=classic;html=1;strokeColor=#33001A;strokeWidth=2;entryX=0;entryY=0.5;entryDx=0;entryDy=0;" parent="gzl_tsDSNwr4_2YUXKIT-1" target="gzl_tsDSNwr4_2YUXKIT-30" edge="1">
          <mxGeometry width="50" height="50" relative="1" as="geometry">
            <mxPoint x="940" y="1005" as="sourcePoint" />
            <mxPoint x="990" y="950" as="targetPoint" />
          </mxGeometry>
        </mxCell>
        <mxCell id="gzl_tsDSNwr4_2YUXKIT-60" value="" style="endArrow=classic;html=1;strokeColor=#33001A;strokeWidth=2;entryX=0;entryY=0.5;entryDx=0;entryDy=0;" parent="gzl_tsDSNwr4_2YUXKIT-1" target="gzl_tsDSNwr4_2YUXKIT-29" edge="1">
          <mxGeometry width="50" height="50" relative="1" as="geometry">
            <mxPoint x="960" y="1010" as="sourcePoint" />
            <mxPoint x="1000" y="880" as="targetPoint" />
            <Array as="points">
              <mxPoint x="960" y="880" />
            </Array>
          </mxGeometry>
        </mxCell>
        <mxCell id="gzl_tsDSNwr4_2YUXKIT-61" value="" style="endArrow=classic;html=1;strokeColor=#33001A;strokeWidth=2;entryX=0;entryY=0.5;entryDx=0;entryDy=0;" parent="gzl_tsDSNwr4_2YUXKIT-1" target="gzl_tsDSNwr4_2YUXKIT-31" edge="1">
          <mxGeometry width="50" height="50" relative="1" as="geometry">
            <mxPoint x="960" y="1010" as="sourcePoint" />
            <mxPoint x="970" y="1110" as="targetPoint" />
            <Array as="points">
              <mxPoint x="960" y="1120" />
            </Array>
          </mxGeometry>
        </mxCell>
        <mxCell id="gzl_tsDSNwr4_2YUXKIT-64" value="" style="endArrow=classic;html=1;strokeColor=#33001A;strokeWidth=2;entryX=0;entryY=0.5;entryDx=0;entryDy=0;" parent="gzl_tsDSNwr4_2YUXKIT-1" target="gzl_tsDSNwr4_2YUXKIT-32" edge="1">
          <mxGeometry width="50" height="50" relative="1" as="geometry">
            <mxPoint x="1150" y="880" as="sourcePoint" />
            <mxPoint x="1180" y="830" as="targetPoint" />
          </mxGeometry>
        </mxCell>
        <mxCell id="gzl_tsDSNwr4_2YUXKIT-68" value="" style="endArrow=classic;html=1;strokeColor=#33001A;strokeWidth=2;entryX=0;entryY=0.5;entryDx=0;entryDy=0;" parent="gzl_tsDSNwr4_2YUXKIT-1" target="gzl_tsDSNwr4_2YUXKIT-33" edge="1">
          <mxGeometry width="50" height="50" relative="1" as="geometry">
            <mxPoint x="1130" y="1005" as="sourcePoint" />
            <mxPoint x="1180" y="950" as="targetPoint" />
          </mxGeometry>
        </mxCell>
        <mxCell id="gzl_tsDSNwr4_2YUXKIT-69" value="" style="endArrow=classic;html=1;strokeColor=#33001A;strokeWidth=2;" parent="gzl_tsDSNwr4_2YUXKIT-1" edge="1">
          <mxGeometry width="50" height="50" relative="1" as="geometry">
            <mxPoint x="1130" y="1120" as="sourcePoint" />
            <mxPoint x="1390" y="1005" as="targetPoint" />
            <Array as="points">
              <mxPoint x="1360" y="1120" />
              <mxPoint x="1360" y="1005" />
            </Array>
          </mxGeometry>
        </mxCell>
        <mxCell id="gzl_tsDSNwr4_2YUXKIT-70" value="" style="endArrow=classic;html=1;strokeColor=#33001A;strokeWidth=2;exitX=1;exitY=0.5;exitDx=0;exitDy=0;entryX=0;entryY=0.5;entryDx=0;entryDy=0;" parent="gzl_tsDSNwr4_2YUXKIT-1" source="gzl_tsDSNwr4_2YUXKIT-32" target="gzl_tsDSNwr4_2YUXKIT-33" edge="1">
          <mxGeometry width="50" height="50" relative="1" as="geometry">
            <mxPoint x="1330" y="870" as="sourcePoint" />
            <mxPoint x="1380" y="820" as="targetPoint" />
            <Array as="points">
              <mxPoint x="1360" y="880" />
              <mxPoint x="1360" y="1005" />
            </Array>
          </mxGeometry>
        </mxCell>
        <mxCell id="gzl_tsDSNwr4_2YUXKIT-74" value="" style="endArrow=classic;html=1;strokeColor=#33001A;strokeWidth=2;entryX=0;entryY=0.5;entryDx=0;entryDy=0;exitX=0.5;exitY=0;exitDx=0;exitDy=0;" parent="gzl_tsDSNwr4_2YUXKIT-1" target="gzl_tsDSNwr4_2YUXKIT-24" edge="1">
          <mxGeometry width="50" height="50" relative="1" as="geometry">
            <mxPoint x="879" y="969" as="sourcePoint" />
            <mxPoint x="930" y="914" as="targetPoint" />
            <Array as="points">
              <mxPoint x="880" y="760" />
            </Array>
          </mxGeometry>
        </mxCell>
        <mxCell id="gzl_tsDSNwr4_2YUXKIT-75" value="&lt;font style=&quot;font-size: 18px&quot; color=&quot;#666666&quot;&gt;&lt;i&gt;过期&lt;/i&gt;&lt;/font&gt;" style="edgeLabel;html=1;align=center;verticalAlign=middle;resizable=0;points=[];" parent="gzl_tsDSNwr4_2YUXKIT-74" vertex="1" connectable="0">
          <mxGeometry x="-0.1643" y="1" relative="1" as="geometry">
            <mxPoint x="0.33" y="-8" as="offset" />
          </mxGeometry>
        </mxCell>
        <mxCell id="gzl_tsDSNwr4_2YUXKIT-76" value="" style="endArrow=classic;html=1;strokeColor=#33001A;strokeWidth=2;entryX=0.5;entryY=0;entryDx=0;entryDy=0;dashed=1;" parent="gzl_tsDSNwr4_2YUXKIT-1" target="gzl_tsDSNwr4_2YUXKIT-27" edge="1">
          <mxGeometry width="50" height="50" relative="1" as="geometry">
            <mxPoint x="880" y="900" as="sourcePoint" />
            <mxPoint x="930" y="850" as="targetPoint" />
            <Array as="points">
              <mxPoint x="710" y="900" />
            </Array>
          </mxGeometry>
        </mxCell>
        <mxCell id="gzl_tsDSNwr4_2YUXKIT-77" value="&lt;font style=&quot;font-size: 18px&quot;&gt;&lt;i&gt;更新Version&lt;/i&gt;&lt;/font&gt;" style="edgeLabel;html=1;align=center;verticalAlign=middle;resizable=0;points=[];" parent="gzl_tsDSNwr4_2YUXKIT-76" vertex="1" connectable="0">
          <mxGeometry x="0.0367" y="-2" relative="1" as="geometry">
            <mxPoint x="17" as="offset" />
          </mxGeometry>
        </mxCell>
        <mxCell id="gzl_tsDSNwr4_2YUXKIT-82" value="&lt;font style=&quot;font-size: 24px&quot;&gt;Csr-Node&lt;/font&gt;" style="rounded=1;whiteSpace=wrap;html=1;" parent="gzl_tsDSNwr4_2YUXKIT-1" vertex="1">
          <mxGeometry x="250" y="820" width="140" height="60" as="geometry" />
        </mxCell>
        <mxCell id="gzl_tsDSNwr4_2YUXKIT-83" value="" style="endArrow=classic;html=1;dashed=1;strokeColor=#33001A;strokeWidth=2;entryX=0.5;entryY=1;entryDx=0;entryDy=0;exitX=0.5;exitY=0;exitDx=0;exitDy=0;" parent="gzl_tsDSNwr4_2YUXKIT-1" target="gzl_tsDSNwr4_2YUXKIT-82" edge="1" source="gzl_tsDSNwr4_2YUXKIT-36">
          <mxGeometry width="50" height="50" relative="1" as="geometry">
            <mxPoint x="370" y="1020" as="sourcePoint" />
            <mxPoint x="307" y="880" as="targetPoint" />
          </mxGeometry>
        </mxCell>
        <mxCell id="jqXbDSH13-KjsAYpCUqP-1" value="" style="endArrow=classic;html=1;strokeWidth=2;strokeColor=#33001A;entryX=0;entryY=0.5;entryDx=0;entryDy=0;exitX=1;exitY=0.5;exitDx=0;exitDy=0;" parent="gzl_tsDSNwr4_2YUXKIT-1" source="gzl_tsDSNwr4_2YUXKIT-16" target="gzl_tsDSNwr4_2YUXKIT-17" edge="1">
          <mxGeometry width="50" height="50" relative="1" as="geometry">
            <mxPoint x="310" y="570" as="sourcePoint" />
            <mxPoint x="390" y="570.5" as="targetPoint" />
          </mxGeometry>
        </mxCell>
        <mxCell id="uD61DGhKZ8CWXefVZc5i-0" value="&lt;font style=&quot;font-size: 28px&quot;&gt;Redis&lt;/font&gt;" style="rounded=0;whiteSpace=wrap;html=1;dashed=1;fontSize=22;fillColor=#a0522d;strokeColor=#6D1F00;fontColor=#ffffff;" parent="gzl_tsDSNwr4_2YUXKIT-1" vertex="1">
          <mxGeometry x="1600" y="400" width="120" height="60" as="geometry" />
        </mxCell>
        <mxCell id="-TC7FYDmA6G3obgHkWp9-0" value="" style="endArrow=classic;html=1;entryX=0;entryY=0.5;entryDx=0;entryDy=0;" edge="1" parent="gzl_tsDSNwr4_2YUXKIT-1" target="uD61DGhKZ8CWXefVZc5i-0">
          <mxGeometry width="50" height="50" relative="1" as="geometry">
            <mxPoint x="1370" y="430" as="sourcePoint" />
            <mxPoint x="1420" y="380" as="targetPoint" />
          </mxGeometry>
        </mxCell>
        <mxCell id="-TC7FYDmA6G3obgHkWp9-1" value="" style="endArrow=classic;html=1;entryX=0.5;entryY=0;entryDx=0;entryDy=0;" edge="1" parent="gzl_tsDSNwr4_2YUXKIT-1" target="gzl_tsDSNwr4_2YUXKIT-7">
          <mxGeometry width="50" height="50" relative="1" as="geometry">
            <mxPoint x="320" y="460" as="sourcePoint" />
            <mxPoint x="320" y="560" as="targetPoint" />
          </mxGeometry>
        </mxCell>
        <mxCell id="-TC7FYDmA6G3obgHkWp9-2" value="&lt;font style=&quot;font-size: 18px&quot; color=&quot;#666666&quot;&gt;&lt;i&gt;推送&lt;/i&gt;&lt;/font&gt;" style="edgeLabel;html=1;align=center;verticalAlign=middle;resizable=0;points=[];" vertex="1" connectable="0" parent="-TC7FYDmA6G3obgHkWp9-1">
          <mxGeometry x="0.025" y="2" relative="1" as="geometry">
            <mxPoint as="offset" />
          </mxGeometry>
        </mxCell>
      </root>
    </mxGraphModel>
  </diagram>
  <diagram id="lXZI2uAvASyuyR1Ky4mh" name="Page-7">
    <mxGraphModel dx="2066" dy="1131" grid="1" gridSize="10" guides="1" tooltips="1" connect="1" arrows="1" fold="1" page="1" pageScale="1" pageWidth="1169" pageHeight="827" math="0" shadow="0">
      <root>
        <mxCell id="EvET-kHEZIt9R6Dofx0S-0" />
        <mxCell id="EvET-kHEZIt9R6Dofx0S-1" parent="EvET-kHEZIt9R6Dofx0S-0" />
      </root>
    </mxGraphModel>
  </diagram>
  <diagram id="XbNf6KwpmOv9sSk2M3Yd" name="内存优化1">
    <mxGraphModel dx="1179" dy="1391" grid="1" gridSize="10" guides="1" tooltips="1" connect="1" arrows="1" fold="1" page="1" pageScale="1" pageWidth="1169" pageHeight="827" math="0" shadow="0">
      <root>
        <mxCell id="H9Je1MAyBBd2xcpwLvX0-0" />
        <mxCell id="H9Je1MAyBBd2xcpwLvX0-1" parent="H9Je1MAyBBd2xcpwLvX0-0" />
        <mxCell id="H9Je1MAyBBd2xcpwLvX0-2" value="&lt;font style=&quot;font-size: 24px&quot;&gt;业务日志&lt;/font&gt;" style="rounded=1;whiteSpace=wrap;html=1;" parent="H9Je1MAyBBd2xcpwLvX0-1" vertex="1">
          <mxGeometry x="160" y="270" width="120" height="80" as="geometry" />
        </mxCell>
        <mxCell id="H9Je1MAyBBd2xcpwLvX0-3" value="&lt;font style=&quot;font-size: 24px&quot;&gt;缓存队列&lt;br&gt;(128*0.5MB)&lt;br&gt;&lt;/font&gt;" style="rounded=1;whiteSpace=wrap;html=1;" parent="H9Je1MAyBBd2xcpwLvX0-1" vertex="1">
          <mxGeometry x="900" y="270" width="150" height="80" as="geometry" />
        </mxCell>
        <mxCell id="H9Je1MAyBBd2xcpwLvX0-4" value="&lt;font style=&quot;font-size: 24px&quot;&gt;日志转Buffer&lt;br&gt;(预分配1MB)&lt;br&gt;&lt;/font&gt;" style="rounded=1;whiteSpace=wrap;html=1;" parent="H9Je1MAyBBd2xcpwLvX0-1" vertex="1">
          <mxGeometry x="360" y="270" width="160" height="80" as="geometry" />
        </mxCell>
        <mxCell id="H9Je1MAyBBd2xcpwLvX0-5" value="&lt;font style=&quot;font-size: 24px&quot;&gt;Tcp协议拼接，发送&lt;br&gt;(预分配1MB)&lt;br&gt;&lt;/font&gt;" style="rounded=1;whiteSpace=wrap;html=1;" parent="H9Je1MAyBBd2xcpwLvX0-1" vertex="1">
          <mxGeometry x="1130" y="270" width="230" height="80" as="geometry" />
        </mxCell>
        <mxCell id="H9Je1MAyBBd2xcpwLvX0-7" value="" style="shape=flexArrow;endArrow=classic;html=1;" parent="H9Je1MAyBBd2xcpwLvX0-1" edge="1">
          <mxGeometry width="50" height="50" relative="1" as="geometry">
            <mxPoint x="290" y="309.5" as="sourcePoint" />
            <mxPoint x="350" y="309.5" as="targetPoint" />
          </mxGeometry>
        </mxCell>
        <mxCell id="H9Je1MAyBBd2xcpwLvX0-8" value="" style="shape=flexArrow;endArrow=classic;html=1;" parent="H9Je1MAyBBd2xcpwLvX0-1" edge="1">
          <mxGeometry width="50" height="50" relative="1" as="geometry">
            <mxPoint x="830" y="309.5" as="sourcePoint" />
            <mxPoint x="890" y="309.5" as="targetPoint" />
          </mxGeometry>
        </mxCell>
        <mxCell id="H9Je1MAyBBd2xcpwLvX0-9" value="" style="shape=flexArrow;endArrow=classic;html=1;" parent="H9Je1MAyBBd2xcpwLvX0-1" edge="1">
          <mxGeometry width="50" height="50" relative="1" as="geometry">
            <mxPoint x="1060" y="309.5" as="sourcePoint" />
            <mxPoint x="1120" y="309.5" as="targetPoint" />
          </mxGeometry>
        </mxCell>
        <mxCell id="Ihp9jIZXpIfq8OrayPV_-1" value="&lt;font style=&quot;font-size: 24px&quot;&gt;V3&lt;br&gt;&lt;/font&gt;" style="text;html=1;align=center;verticalAlign=middle;resizable=0;points=[];autosize=1;strokeColor=none;" vertex="1" parent="H9Je1MAyBBd2xcpwLvX0-1">
          <mxGeometry x="110" y="300" width="40" height="20" as="geometry" />
        </mxCell>
        <mxCell id="Ihp9jIZXpIfq8OrayPV_-2" value="&lt;font style=&quot;font-size: 24px&quot;&gt;WriteStream管道&lt;br&gt;（200MB）&lt;br&gt;&lt;/font&gt;" style="rounded=1;whiteSpace=wrap;html=1;" vertex="1" parent="H9Je1MAyBBd2xcpwLvX0-1">
          <mxGeometry x="600" y="270" width="220" height="80" as="geometry" />
        </mxCell>
        <mxCell id="Ihp9jIZXpIfq8OrayPV_-3" value="" style="shape=flexArrow;endArrow=classic;html=1;" edge="1" parent="H9Je1MAyBBd2xcpwLvX0-1">
          <mxGeometry width="50" height="50" relative="1" as="geometry">
            <mxPoint x="530" y="309.5" as="sourcePoint" />
            <mxPoint x="590" y="309.5" as="targetPoint" />
          </mxGeometry>
        </mxCell>
        <mxCell id="Ihp9jIZXpIfq8OrayPV_-4" value="" style="endArrow=classic;html=1;entryX=0.614;entryY=-0.037;entryDx=0;entryDy=0;strokeWidth=2;entryPerimeter=0;" edge="1" parent="H9Je1MAyBBd2xcpwLvX0-1" target="Ihp9jIZXpIfq8OrayPV_-2">
          <mxGeometry width="50" height="50" relative="1" as="geometry">
            <mxPoint x="970" y="270" as="sourcePoint" />
            <mxPoint x="1020" y="220" as="targetPoint" />
            <Array as="points">
              <mxPoint x="970" y="200" />
              <mxPoint x="735" y="200" />
            </Array>
          </mxGeometry>
        </mxCell>
        <mxCell id="Ihp9jIZXpIfq8OrayPV_-5" value="&lt;font style=&quot;font-size: 19px&quot; color=&quot;#333333&quot;&gt;&lt;i&gt;缓存队列已满&lt;/i&gt;&lt;/font&gt;" style="edgeLabel;html=1;align=center;verticalAlign=middle;resizable=0;points=[];" vertex="1" connectable="0" parent="Ihp9jIZXpIfq8OrayPV_-4">
          <mxGeometry x="0.02" y="-2" relative="1" as="geometry">
            <mxPoint as="offset" />
          </mxGeometry>
        </mxCell>
        <mxCell id="Ihp9jIZXpIfq8OrayPV_-6" value="" style="endArrow=classic;html=1;strokeWidth=2;entryX=0.6;entryY=1.025;entryDx=0;entryDy=0;entryPerimeter=0;" edge="1" parent="H9Je1MAyBBd2xcpwLvX0-1" target="Ihp9jIZXpIfq8OrayPV_-2">
          <mxGeometry width="50" height="50" relative="1" as="geometry">
            <mxPoint x="970" y="350" as="sourcePoint" />
            <mxPoint x="1020" y="300" as="targetPoint" />
            <Array as="points">
              <mxPoint x="970" y="420" />
              <mxPoint x="732" y="420" />
            </Array>
          </mxGeometry>
        </mxCell>
        <mxCell id="Ihp9jIZXpIfq8OrayPV_-7" value="&lt;font style=&quot;font-size: 19px&quot; color=&quot;#333333&quot;&gt;&lt;i&gt;缓存队列清空&lt;/i&gt;&lt;/font&gt;" style="edgeLabel;html=1;align=center;verticalAlign=middle;resizable=0;points=[];" vertex="1" connectable="0" parent="Ihp9jIZXpIfq8OrayPV_-6">
          <mxGeometry x="0.0426" y="-3" relative="1" as="geometry">
            <mxPoint x="6" y="-3" as="offset" />
          </mxGeometry>
        </mxCell>
        <mxCell id="Ihp9jIZXpIfq8OrayPV_-8" value="" style="endArrow=classic;html=1;strokeWidth=2;entryX=0.5;entryY=0;entryDx=0;entryDy=0;" edge="1" parent="H9Je1MAyBBd2xcpwLvX0-1" target="H9Je1MAyBBd2xcpwLvX0-4">
          <mxGeometry width="50" height="50" relative="1" as="geometry">
            <mxPoint x="690" y="270" as="sourcePoint" />
            <mxPoint x="740" y="220" as="targetPoint" />
            <Array as="points">
              <mxPoint x="690" y="200" />
              <mxPoint x="440" y="200" />
            </Array>
          </mxGeometry>
        </mxCell>
        <mxCell id="Ihp9jIZXpIfq8OrayPV_-9" value="&lt;font style=&quot;font-size: 19px&quot; color=&quot;#333333&quot;&gt;&lt;i&gt;WriteStream管道已满&lt;br&gt;触发背压机制&lt;/i&gt;&lt;/font&gt;" style="edgeLabel;html=1;align=center;verticalAlign=middle;resizable=0;points=[];" vertex="1" connectable="0" parent="Ihp9jIZXpIfq8OrayPV_-8">
          <mxGeometry x="0.0769" y="-2" relative="1" as="geometry">
            <mxPoint x="10" as="offset" />
          </mxGeometry>
        </mxCell>
        <mxCell id="Ihp9jIZXpIfq8OrayPV_-10" value="" style="endArrow=classic;html=1;strokeWidth=2;entryX=0.5;entryY=1;entryDx=0;entryDy=0;" edge="1" parent="H9Je1MAyBBd2xcpwLvX0-1" target="H9Je1MAyBBd2xcpwLvX0-4">
          <mxGeometry width="50" height="50" relative="1" as="geometry">
            <mxPoint x="690" y="350" as="sourcePoint" />
            <mxPoint x="740" y="300" as="targetPoint" />
            <Array as="points">
              <mxPoint x="690" y="420" />
              <mxPoint x="440" y="420" />
            </Array>
          </mxGeometry>
        </mxCell>
        <mxCell id="Ihp9jIZXpIfq8OrayPV_-11" value="&lt;font style=&quot;font-size: 19px&quot; color=&quot;#333333&quot;&gt;&lt;i&gt;Stream管道已清空&lt;br&gt;通知继续消费日志&lt;/i&gt;&lt;/font&gt;" style="edgeLabel;html=1;align=center;verticalAlign=middle;resizable=0;points=[];" vertex="1" connectable="0" parent="Ihp9jIZXpIfq8OrayPV_-10">
          <mxGeometry x="0.0923" y="-2" relative="1" as="geometry">
            <mxPoint x="23" y="-4" as="offset" />
          </mxGeometry>
        </mxCell>
        <mxCell id="Ihp9jIZXpIfq8OrayPV_-12" value="" style="endArrow=classic;html=1;strokeWidth=2;" edge="1" parent="H9Je1MAyBBd2xcpwLvX0-1">
          <mxGeometry width="50" height="50" relative="1" as="geometry">
            <mxPoint x="400" y="270" as="sourcePoint" />
            <mxPoint x="400" y="120" as="targetPoint" />
          </mxGeometry>
        </mxCell>
        <mxCell id="Ihp9jIZXpIfq8OrayPV_-15" value="&lt;font style=&quot;font-size: 24px&quot;&gt;触发报警&lt;/font&gt;" style="rounded=1;whiteSpace=wrap;html=1;" vertex="1" parent="H9Je1MAyBBd2xcpwLvX0-1">
          <mxGeometry x="340" y="-50" width="120" height="60" as="geometry" />
        </mxCell>
        <mxCell id="Ihp9jIZXpIfq8OrayPV_-17" value="&lt;font style=&quot;font-size: 24px&quot;&gt;写入文件&lt;/font&gt;" style="rounded=1;whiteSpace=wrap;html=1;" vertex="1" parent="H9Je1MAyBBd2xcpwLvX0-1">
          <mxGeometry x="340" y="60" width="120" height="60" as="geometry" />
        </mxCell>
        <mxCell id="Ihp9jIZXpIfq8OrayPV_-18" value="" style="endArrow=classic;html=1;strokeWidth=2;exitX=0.5;exitY=0;exitDx=0;exitDy=0;" edge="1" parent="H9Je1MAyBBd2xcpwLvX0-1" source="Ihp9jIZXpIfq8OrayPV_-17">
          <mxGeometry width="50" height="50" relative="1" as="geometry">
            <mxPoint x="460" y="90" as="sourcePoint" />
            <mxPoint x="400" y="11" as="targetPoint" />
          </mxGeometry>
        </mxCell>
        <mxCell id="Ihp9jIZXpIfq8OrayPV_-19" value="&lt;font style=&quot;font-size: 24px&quot;&gt;记录写文件流量&lt;br&gt;(定时恢复)&lt;br&gt;&lt;/font&gt;" style="rounded=1;whiteSpace=wrap;html=1;" vertex="1" parent="H9Je1MAyBBd2xcpwLvX0-1">
          <mxGeometry x="560" y="60" width="180" height="60" as="geometry" />
        </mxCell>
        <mxCell id="Ihp9jIZXpIfq8OrayPV_-20" value="" style="shape=flexArrow;endArrow=classic;html=1;strokeWidth=1;" edge="1" parent="H9Je1MAyBBd2xcpwLvX0-1">
          <mxGeometry width="50" height="50" relative="1" as="geometry">
            <mxPoint x="470" y="90" as="sourcePoint" />
            <mxPoint x="550" y="90" as="targetPoint" />
          </mxGeometry>
        </mxCell>
        <mxCell id="Ihp9jIZXpIfq8OrayPV_-22" value="&lt;font style=&quot;font-size: 21px&quot; color=&quot;#333333&quot;&gt;&lt;i&gt;丢弃日志&lt;/i&gt;&lt;/font&gt;" style="ellipse;shape=cloud;whiteSpace=wrap;html=1;" vertex="1" parent="H9Je1MAyBBd2xcpwLvX0-1">
          <mxGeometry x="880" y="46" width="150" height="80" as="geometry" />
        </mxCell>
        <mxCell id="Ihp9jIZXpIfq8OrayPV_-23" value="" style="endArrow=classic;html=1;strokeWidth=1;entryX=0.16;entryY=0.55;entryDx=0;entryDy=0;entryPerimeter=0;" edge="1" parent="H9Je1MAyBBd2xcpwLvX0-1" target="Ihp9jIZXpIfq8OrayPV_-22">
          <mxGeometry width="50" height="50" relative="1" as="geometry">
            <mxPoint x="740" y="90" as="sourcePoint" />
            <mxPoint x="790" y="40" as="targetPoint" />
          </mxGeometry>
        </mxCell>
        <mxCell id="Ihp9jIZXpIfq8OrayPV_-24" value="&lt;font style=&quot;font-size: 19px&quot; color=&quot;#333333&quot;&gt;&lt;i&gt;超出nG&lt;/i&gt;&lt;/font&gt;" style="edgeLabel;html=1;align=center;verticalAlign=middle;resizable=0;points=[];" vertex="1" connectable="0" parent="Ihp9jIZXpIfq8OrayPV_-23">
          <mxGeometry x="-0.1341" y="1" relative="1" as="geometry">
            <mxPoint as="offset" />
          </mxGeometry>
        </mxCell>
        <mxCell id="Ihp9jIZXpIfq8OrayPV_-25" value="&lt;font style=&quot;font-size: 18px&quot;&gt;继续探索死保日志方案&lt;/font&gt;" style="shape=note;whiteSpace=wrap;html=1;backgroundOutline=1;darkOpacity=0.05;" vertex="1" parent="H9Je1MAyBBd2xcpwLvX0-1">
          <mxGeometry x="1060" y="10" width="120" height="130" as="geometry" />
        </mxCell>
      </root>
    </mxGraphModel>
  </diagram>
  <diagram id="To6eaCd9pBzCuZaHLYp6" name="网红端架构">
    <mxGraphModel dx="1179" dy="1391" grid="1" gridSize="10" guides="1" tooltips="1" connect="1" arrows="1" fold="1" page="1" pageScale="1" pageWidth="1169" pageHeight="827" math="0" shadow="0">
      <root>
        <mxCell id="dUGhqzerWHfJBFKj9IhJ-0" />
        <mxCell id="dUGhqzerWHfJBFKj9IhJ-1" parent="dUGhqzerWHfJBFKj9IhJ-0" />
        <mxCell id="dUGhqzerWHfJBFKj9IhJ-2" value="&lt;font style=&quot;font-size: 20px&quot;&gt;网红端重构&lt;/font&gt;" style="rounded=1;whiteSpace=wrap;html=1;" vertex="1" parent="dUGhqzerWHfJBFKj9IhJ-1">
          <mxGeometry x="270" y="340" width="120" height="60" as="geometry" />
        </mxCell>
        <mxCell id="dUGhqzerWHfJBFKj9IhJ-3" value="&lt;span style=&quot;font-size: 20px&quot;&gt;Store状态&lt;/span&gt;" style="rounded=1;whiteSpace=wrap;html=1;" vertex="1" parent="dUGhqzerWHfJBFKj9IhJ-1">
          <mxGeometry x="480" y="-10" width="120" height="60" as="geometry" />
        </mxCell>
        <mxCell id="dUGhqzerWHfJBFKj9IhJ-4" value="&lt;span style=&quot;font-size: 20px&quot;&gt;组件&lt;/span&gt;" style="rounded=1;whiteSpace=wrap;html=1;" vertex="1" parent="dUGhqzerWHfJBFKj9IhJ-1">
          <mxGeometry x="480" y="200" width="120" height="60" as="geometry" />
        </mxCell>
        <mxCell id="dUGhqzerWHfJBFKj9IhJ-5" value="&lt;font style=&quot;font-size: 20px&quot;&gt;页面&lt;/font&gt;" style="rounded=1;whiteSpace=wrap;html=1;" vertex="1" parent="dUGhqzerWHfJBFKj9IhJ-1">
          <mxGeometry x="480" y="340" width="120" height="60" as="geometry" />
        </mxCell>
        <mxCell id="dUGhqzerWHfJBFKj9IhJ-6" value="&lt;font style=&quot;font-size: 20px&quot;&gt;性能&amp;amp;体验&lt;/font&gt;" style="rounded=1;whiteSpace=wrap;html=1;" vertex="1" parent="dUGhqzerWHfJBFKj9IhJ-1">
          <mxGeometry x="480" y="483.5" width="120" height="60" as="geometry" />
        </mxCell>
        <mxCell id="dUGhqzerWHfJBFKj9IhJ-7" value="&lt;font style=&quot;font-size: 20px&quot;&gt;埋点&lt;/font&gt;" style="rounded=1;whiteSpace=wrap;html=1;" vertex="1" parent="dUGhqzerWHfJBFKj9IhJ-1">
          <mxGeometry x="480" y="660" width="120" height="60" as="geometry" />
        </mxCell>
        <mxCell id="dUGhqzerWHfJBFKj9IhJ-9" value="&lt;span style=&quot;font-size: 20px&quot;&gt;原子组件&lt;/span&gt;" style="rounded=1;whiteSpace=wrap;html=1;" vertex="1" parent="dUGhqzerWHfJBFKj9IhJ-1">
          <mxGeometry x="760" y="130" width="120" height="60" as="geometry" />
        </mxCell>
        <mxCell id="dUGhqzerWHfJBFKj9IhJ-10" value="&lt;span style=&quot;font-size: 20px&quot;&gt;功能组件&lt;/span&gt;" style="rounded=1;whiteSpace=wrap;html=1;" vertex="1" parent="dUGhqzerWHfJBFKj9IhJ-1">
          <mxGeometry x="760" y="200" width="120" height="60" as="geometry" />
        </mxCell>
        <mxCell id="dUGhqzerWHfJBFKj9IhJ-11" value="&lt;span style=&quot;font-size: 20px&quot;&gt;业务组件&lt;/span&gt;" style="rounded=1;whiteSpace=wrap;html=1;" vertex="1" parent="dUGhqzerWHfJBFKj9IhJ-1">
          <mxGeometry x="760" y="270" width="120" height="60" as="geometry" />
        </mxCell>
        <mxCell id="dUGhqzerWHfJBFKj9IhJ-12" value="&lt;span style=&quot;font-size: 20px&quot;&gt;任务模型&lt;/span&gt;" style="rounded=1;whiteSpace=wrap;html=1;" vertex="1" parent="dUGhqzerWHfJBFKj9IhJ-1">
          <mxGeometry x="760" y="-80" width="120" height="60" as="geometry" />
        </mxCell>
        <mxCell id="dUGhqzerWHfJBFKj9IhJ-13" value="&lt;span style=&quot;font-size: 20px&quot;&gt;收益模型&lt;/span&gt;" style="rounded=1;whiteSpace=wrap;html=1;" vertex="1" parent="dUGhqzerWHfJBFKj9IhJ-1">
          <mxGeometry x="760" y="-10" width="120" height="60" as="geometry" />
        </mxCell>
        <mxCell id="dUGhqzerWHfJBFKj9IhJ-14" value="&lt;span style=&quot;font-size: 20px&quot;&gt;业务模型&lt;/span&gt;" style="rounded=1;whiteSpace=wrap;html=1;" vertex="1" parent="dUGhqzerWHfJBFKj9IhJ-1">
          <mxGeometry x="760" y="60" width="120" height="60" as="geometry" />
        </mxCell>
        <mxCell id="dUGhqzerWHfJBFKj9IhJ-16" value="&lt;span style=&quot;font-size: 20px&quot;&gt;静态资源&lt;br&gt;瘦身&lt;br&gt;&lt;/span&gt;" style="rounded=1;whiteSpace=wrap;html=1;" vertex="1" parent="dUGhqzerWHfJBFKj9IhJ-1">
          <mxGeometry x="760" y="413.5" width="120" height="60" as="geometry" />
        </mxCell>
        <mxCell id="dUGhqzerWHfJBFKj9IhJ-17" value="&lt;span style=&quot;font-size: 20px&quot;&gt;接口&lt;br&gt;复用&amp;amp;精简&lt;/span&gt;" style="rounded=1;whiteSpace=wrap;html=1;" vertex="1" parent="dUGhqzerWHfJBFKj9IhJ-1">
          <mxGeometry x="760" y="483.5" width="120" height="60" as="geometry" />
        </mxCell>
        <mxCell id="dUGhqzerWHfJBFKj9IhJ-18" value="&lt;span style=&quot;font-size: 20px&quot;&gt;交互动画&lt;br&gt;规范&lt;/span&gt;" style="rounded=1;whiteSpace=wrap;html=1;" vertex="1" parent="dUGhqzerWHfJBFKj9IhJ-1">
          <mxGeometry x="760" y="553.5" width="120" height="60" as="geometry" />
        </mxCell>
        <mxCell id="dUGhqzerWHfJBFKj9IhJ-19" value="&lt;span style=&quot;font-size: 20px&quot;&gt;插件&lt;/span&gt;" style="rounded=1;whiteSpace=wrap;html=1;" vertex="1" parent="dUGhqzerWHfJBFKj9IhJ-1">
          <mxGeometry x="760" y="623.5" width="120" height="60" as="geometry" />
        </mxCell>
        <mxCell id="dUGhqzerWHfJBFKj9IhJ-20" value="&lt;span style=&quot;font-size: 20px&quot;&gt;指令&lt;/span&gt;" style="rounded=1;whiteSpace=wrap;html=1;" vertex="1" parent="dUGhqzerWHfJBFKj9IhJ-1">
          <mxGeometry x="760" y="693.5" width="120" height="60" as="geometry" />
        </mxCell>
        <mxCell id="dUGhqzerWHfJBFKj9IhJ-21" value="" style="endArrow=classic;html=1;strokeWidth=2;exitX=1;exitY=0.5;exitDx=0;exitDy=0;" edge="1" parent="dUGhqzerWHfJBFKj9IhJ-1" source="dUGhqzerWHfJBFKj9IhJ-2">
          <mxGeometry width="50" height="50" relative="1" as="geometry">
            <mxPoint x="430" y="70" as="sourcePoint" />
            <mxPoint x="480" y="20" as="targetPoint" />
            <Array as="points">
              <mxPoint x="440" y="370" />
              <mxPoint x="440" y="20" />
            </Array>
          </mxGeometry>
        </mxCell>
        <mxCell id="dUGhqzerWHfJBFKj9IhJ-22" value="&lt;span style=&quot;font-size: 20px&quot;&gt;UI适配&lt;/span&gt;" style="rounded=1;whiteSpace=wrap;html=1;" vertex="1" parent="dUGhqzerWHfJBFKj9IhJ-1">
          <mxGeometry x="760" y="340" width="120" height="60" as="geometry" />
        </mxCell>
        <mxCell id="dUGhqzerWHfJBFKj9IhJ-23" value="" style="endArrow=classic;html=1;strokeWidth=2;entryX=0;entryY=0.5;entryDx=0;entryDy=0;" edge="1" parent="dUGhqzerWHfJBFKj9IhJ-1" target="dUGhqzerWHfJBFKj9IhJ-12">
          <mxGeometry width="50" height="50" relative="1" as="geometry">
            <mxPoint x="600" y="20" as="sourcePoint" />
            <mxPoint x="650" y="-30" as="targetPoint" />
            <Array as="points">
              <mxPoint x="680" y="20" />
              <mxPoint x="680" y="-50" />
            </Array>
          </mxGeometry>
        </mxCell>
        <mxCell id="dUGhqzerWHfJBFKj9IhJ-24" value="" style="endArrow=classic;html=1;strokeWidth=2;entryX=0;entryY=0.5;entryDx=0;entryDy=0;" edge="1" parent="dUGhqzerWHfJBFKj9IhJ-1" target="dUGhqzerWHfJBFKj9IhJ-13">
          <mxGeometry width="50" height="50" relative="1" as="geometry">
            <mxPoint x="600" y="20" as="sourcePoint" />
            <mxPoint x="650" y="-30" as="targetPoint" />
          </mxGeometry>
        </mxCell>
        <mxCell id="dUGhqzerWHfJBFKj9IhJ-25" value="" style="endArrow=classic;html=1;strokeWidth=2;entryX=0;entryY=0.5;entryDx=0;entryDy=0;" edge="1" parent="dUGhqzerWHfJBFKj9IhJ-1" target="dUGhqzerWHfJBFKj9IhJ-14">
          <mxGeometry width="50" height="50" relative="1" as="geometry">
            <mxPoint x="600" y="20" as="sourcePoint" />
            <mxPoint x="650" y="-30" as="targetPoint" />
            <Array as="points">
              <mxPoint x="680" y="20" />
              <mxPoint x="680" y="90" />
            </Array>
          </mxGeometry>
        </mxCell>
        <mxCell id="dUGhqzerWHfJBFKj9IhJ-26" value="" style="endArrow=classic;html=1;strokeWidth=2;entryX=0;entryY=0.5;entryDx=0;entryDy=0;exitX=1;exitY=0.5;exitDx=0;exitDy=0;" edge="1" parent="dUGhqzerWHfJBFKj9IhJ-1" source="dUGhqzerWHfJBFKj9IhJ-4" target="dUGhqzerWHfJBFKj9IhJ-9">
          <mxGeometry width="50" height="50" relative="1" as="geometry">
            <mxPoint x="600" y="240" as="sourcePoint" />
            <mxPoint x="650" y="190" as="targetPoint" />
            <Array as="points">
              <mxPoint x="680" y="230" />
              <mxPoint x="680" y="160" />
            </Array>
          </mxGeometry>
        </mxCell>
        <mxCell id="dUGhqzerWHfJBFKj9IhJ-27" value="" style="endArrow=classic;html=1;strokeWidth=2;entryX=0;entryY=0.5;entryDx=0;entryDy=0;" edge="1" parent="dUGhqzerWHfJBFKj9IhJ-1" target="dUGhqzerWHfJBFKj9IhJ-10">
          <mxGeometry width="50" height="50" relative="1" as="geometry">
            <mxPoint x="600" y="230" as="sourcePoint" />
            <mxPoint x="650" y="170" as="targetPoint" />
          </mxGeometry>
        </mxCell>
        <mxCell id="dUGhqzerWHfJBFKj9IhJ-28" value="" style="endArrow=classic;html=1;strokeWidth=2;entryX=0;entryY=0.5;entryDx=0;entryDy=0;" edge="1" parent="dUGhqzerWHfJBFKj9IhJ-1" target="dUGhqzerWHfJBFKj9IhJ-11">
          <mxGeometry width="50" height="50" relative="1" as="geometry">
            <mxPoint x="600" y="230" as="sourcePoint" />
            <mxPoint x="650" y="180" as="targetPoint" />
            <Array as="points">
              <mxPoint x="680" y="230" />
              <mxPoint x="680" y="300" />
            </Array>
          </mxGeometry>
        </mxCell>
        <mxCell id="dUGhqzerWHfJBFKj9IhJ-29" value="" style="endArrow=classic;html=1;strokeWidth=2;entryX=0;entryY=0.5;entryDx=0;entryDy=0;" edge="1" parent="dUGhqzerWHfJBFKj9IhJ-1" target="dUGhqzerWHfJBFKj9IhJ-22">
          <mxGeometry width="50" height="50" relative="1" as="geometry">
            <mxPoint x="600" y="370" as="sourcePoint" />
            <mxPoint x="650" y="320" as="targetPoint" />
          </mxGeometry>
        </mxCell>
        <mxCell id="dUGhqzerWHfJBFKj9IhJ-30" value="" style="endArrow=classic;html=1;strokeWidth=2;entryX=0;entryY=0.5;entryDx=0;entryDy=0;" edge="1" parent="dUGhqzerWHfJBFKj9IhJ-1" target="dUGhqzerWHfJBFKj9IhJ-5">
          <mxGeometry width="50" height="50" relative="1" as="geometry">
            <mxPoint x="390" y="370" as="sourcePoint" />
            <mxPoint x="440" y="320" as="targetPoint" />
          </mxGeometry>
        </mxCell>
        <mxCell id="dUGhqzerWHfJBFKj9IhJ-31" value="" style="endArrow=classic;html=1;strokeWidth=2;exitX=1;exitY=0.5;exitDx=0;exitDy=0;" edge="1" parent="dUGhqzerWHfJBFKj9IhJ-1" source="dUGhqzerWHfJBFKj9IhJ-6">
          <mxGeometry width="50" height="50" relative="1" as="geometry">
            <mxPoint x="600" y="500" as="sourcePoint" />
            <mxPoint x="760" y="440" as="targetPoint" />
            <Array as="points">
              <mxPoint x="680" y="514" />
              <mxPoint x="680" y="440" />
            </Array>
          </mxGeometry>
        </mxCell>
        <mxCell id="dUGhqzerWHfJBFKj9IhJ-32" value="" style="endArrow=classic;html=1;strokeWidth=2;exitX=1;exitY=0.5;exitDx=0;exitDy=0;" edge="1" parent="dUGhqzerWHfJBFKj9IhJ-1" source="dUGhqzerWHfJBFKj9IhJ-6">
          <mxGeometry width="50" height="50" relative="1" as="geometry">
            <mxPoint x="600" y="500" as="sourcePoint" />
            <mxPoint x="759" y="514" as="targetPoint" />
          </mxGeometry>
        </mxCell>
        <mxCell id="dUGhqzerWHfJBFKj9IhJ-33" value="" style="endArrow=classic;html=1;strokeWidth=2;entryX=0;entryY=0.5;entryDx=0;entryDy=0;exitX=1;exitY=0.5;exitDx=0;exitDy=0;" edge="1" parent="dUGhqzerWHfJBFKj9IhJ-1" source="dUGhqzerWHfJBFKj9IhJ-6" target="dUGhqzerWHfJBFKj9IhJ-18">
          <mxGeometry width="50" height="50" relative="1" as="geometry">
            <mxPoint x="600" y="510" as="sourcePoint" />
            <mxPoint x="650" y="460" as="targetPoint" />
            <Array as="points">
              <mxPoint x="680" y="514" />
              <mxPoint x="680" y="584" />
            </Array>
          </mxGeometry>
        </mxCell>
        <mxCell id="dUGhqzerWHfJBFKj9IhJ-34" value="" style="endArrow=classic;html=1;strokeWidth=2;entryX=0;entryY=0.5;entryDx=0;entryDy=0;" edge="1" parent="dUGhqzerWHfJBFKj9IhJ-1" target="dUGhqzerWHfJBFKj9IhJ-19">
          <mxGeometry width="50" height="50" relative="1" as="geometry">
            <mxPoint x="600" y="690" as="sourcePoint" />
            <mxPoint x="650" y="640" as="targetPoint" />
            <Array as="points">
              <mxPoint x="680" y="690" />
              <mxPoint x="680" y="654" />
            </Array>
          </mxGeometry>
        </mxCell>
        <mxCell id="dUGhqzerWHfJBFKj9IhJ-35" value="" style="endArrow=classic;html=1;strokeWidth=2;exitX=1;exitY=0.5;exitDx=0;exitDy=0;" edge="1" parent="dUGhqzerWHfJBFKj9IhJ-1" source="dUGhqzerWHfJBFKj9IhJ-7">
          <mxGeometry width="50" height="50" relative="1" as="geometry">
            <mxPoint x="710" y="770" as="sourcePoint" />
            <mxPoint x="760" y="720" as="targetPoint" />
            <Array as="points">
              <mxPoint x="680" y="690" />
              <mxPoint x="680" y="720" />
            </Array>
          </mxGeometry>
        </mxCell>
        <mxCell id="dUGhqzerWHfJBFKj9IhJ-36" value="" style="endArrow=classic;html=1;strokeWidth=2;entryX=0;entryY=0.5;entryDx=0;entryDy=0;" edge="1" parent="dUGhqzerWHfJBFKj9IhJ-1" target="dUGhqzerWHfJBFKj9IhJ-6">
          <mxGeometry width="50" height="50" relative="1" as="geometry">
            <mxPoint x="390" y="370" as="sourcePoint" />
            <mxPoint x="440" y="320" as="targetPoint" />
            <Array as="points">
              <mxPoint x="440" y="370" />
              <mxPoint x="440" y="514" />
            </Array>
          </mxGeometry>
        </mxCell>
        <mxCell id="dUGhqzerWHfJBFKj9IhJ-37" value="" style="endArrow=classic;html=1;strokeWidth=2;entryX=-0.017;entryY=0.65;entryDx=0;entryDy=0;entryPerimeter=0;" edge="1" parent="dUGhqzerWHfJBFKj9IhJ-1" target="dUGhqzerWHfJBFKj9IhJ-7">
          <mxGeometry width="50" height="50" relative="1" as="geometry">
            <mxPoint x="390" y="370" as="sourcePoint" />
            <mxPoint x="440" y="320" as="targetPoint" />
            <Array as="points">
              <mxPoint x="440" y="370" />
              <mxPoint x="440" y="699" />
            </Array>
          </mxGeometry>
        </mxCell>
        <mxCell id="dUGhqzerWHfJBFKj9IhJ-38" value="&lt;font style=&quot;font-size: 23px&quot;&gt;模型化拼装数据&lt;/font&gt;" style="rounded=1;whiteSpace=wrap;html=1;" vertex="1" parent="dUGhqzerWHfJBFKj9IhJ-1">
          <mxGeometry x="1040" y="-10" width="180" height="60" as="geometry" />
        </mxCell>
        <mxCell id="dUGhqzerWHfJBFKj9IhJ-39" value="&lt;span style=&quot;font-size: 23px&quot;&gt;组件积木化&lt;/span&gt;" style="rounded=1;whiteSpace=wrap;html=1;" vertex="1" parent="dUGhqzerWHfJBFKj9IhJ-1">
          <mxGeometry x="1040" y="200" width="180" height="60" as="geometry" />
        </mxCell>
        <mxCell id="dUGhqzerWHfJBFKj9IhJ-40" value="" style="endArrow=classic;html=1;strokeWidth=2;" edge="1" parent="dUGhqzerWHfJBFKj9IhJ-1">
          <mxGeometry width="50" height="50" relative="1" as="geometry">
            <mxPoint x="390" y="370" as="sourcePoint" />
            <mxPoint x="480" y="230" as="targetPoint" />
            <Array as="points">
              <mxPoint x="440" y="370" />
              <mxPoint x="440" y="230" />
            </Array>
          </mxGeometry>
        </mxCell>
        <mxCell id="dUGhqzerWHfJBFKj9IhJ-41" value="&lt;span style=&quot;font-size: 23px&quot;&gt;设计高还原度&lt;/span&gt;" style="rounded=1;whiteSpace=wrap;html=1;" vertex="1" parent="dUGhqzerWHfJBFKj9IhJ-1">
          <mxGeometry x="1040" y="340" width="180" height="60" as="geometry" />
        </mxCell>
        <mxCell id="dUGhqzerWHfJBFKj9IhJ-42" value="&lt;span style=&quot;font-size: 23px&quot;&gt;用户满意度&lt;/span&gt;" style="rounded=1;whiteSpace=wrap;html=1;" vertex="1" parent="dUGhqzerWHfJBFKj9IhJ-1">
          <mxGeometry x="1040" y="483.5" width="180" height="60" as="geometry" />
        </mxCell>
        <mxCell id="dUGhqzerWHfJBFKj9IhJ-43" value="&lt;span style=&quot;font-size: 23px&quot;&gt;快速埋点支持&lt;/span&gt;" style="rounded=1;whiteSpace=wrap;html=1;" vertex="1" parent="dUGhqzerWHfJBFKj9IhJ-1">
          <mxGeometry x="1040" y="650" width="180" height="60" as="geometry" />
        </mxCell>
        <mxCell id="dUGhqzerWHfJBFKj9IhJ-44" value="" style="shape=flexArrow;endArrow=classic;html=1;strokeWidth=2;" edge="1" parent="dUGhqzerWHfJBFKj9IhJ-1">
          <mxGeometry width="50" height="50" relative="1" as="geometry">
            <mxPoint x="900" y="20" as="sourcePoint" />
            <mxPoint x="1020" y="20" as="targetPoint" />
          </mxGeometry>
        </mxCell>
        <mxCell id="dUGhqzerWHfJBFKj9IhJ-45" value="" style="shape=flexArrow;endArrow=classic;html=1;strokeWidth=2;" edge="1" parent="dUGhqzerWHfJBFKj9IhJ-1">
          <mxGeometry width="50" height="50" relative="1" as="geometry">
            <mxPoint x="900" y="229.5" as="sourcePoint" />
            <mxPoint x="1020" y="229.5" as="targetPoint" />
          </mxGeometry>
        </mxCell>
        <mxCell id="dUGhqzerWHfJBFKj9IhJ-46" value="" style="shape=flexArrow;endArrow=classic;html=1;strokeWidth=2;" edge="1" parent="dUGhqzerWHfJBFKj9IhJ-1">
          <mxGeometry width="50" height="50" relative="1" as="geometry">
            <mxPoint x="900" y="369.5" as="sourcePoint" />
            <mxPoint x="1020" y="369.5" as="targetPoint" />
          </mxGeometry>
        </mxCell>
        <mxCell id="dUGhqzerWHfJBFKj9IhJ-47" value="" style="shape=flexArrow;endArrow=classic;html=1;strokeWidth=2;" edge="1" parent="dUGhqzerWHfJBFKj9IhJ-1">
          <mxGeometry width="50" height="50" relative="1" as="geometry">
            <mxPoint x="900" y="513" as="sourcePoint" />
            <mxPoint x="1020" y="513" as="targetPoint" />
          </mxGeometry>
        </mxCell>
        <mxCell id="dUGhqzerWHfJBFKj9IhJ-48" value="" style="shape=flexArrow;endArrow=classic;html=1;strokeWidth=2;" edge="1" parent="dUGhqzerWHfJBFKj9IhJ-1">
          <mxGeometry width="50" height="50" relative="1" as="geometry">
            <mxPoint x="910" y="683.5" as="sourcePoint" />
            <mxPoint x="1030" y="683.5" as="targetPoint" />
          </mxGeometry>
        </mxCell>
      </root>
    </mxGraphModel>
  </diagram>
</mxfile>
